<?xml version="1.0" encoding="UTF-8" standalone="no"?><svg xmlns="http://www.w3.org/2000/svg" xmlns:xlink="http://www.w3.org/1999/xlink" contentScriptType="application/ecmascript" contentStyleType="text/css" height="1042px" preserveAspectRatio="none" style="width:2026px;height:1042px;" version="1.1" viewBox="0 0 2026 1042" width="2026px" zoomAndPan="magnify"><defs><filter height="300%" id="f5khk4xsu3qmm" width="300%" x="-1" y="-1"><feGaussianBlur result="blurOut" stdDeviation="2.0"/><feColorMatrix in="blurOut" result="blurOut2" type="matrix" values="0 0 0 0 0 0 0 0 0 0 0 0 0 0 0 0 0 0 .4 0"/><feOffset dx="4.0" dy="4.0" in="blurOut2" result="blurOut3"/><feBlend in="SourceGraphic" in2="blurOut3" mode="normal"/></filter></defs><g><text fill="#FF0000" font-family="sans-serif" font-size="10" lengthAdjust="spacingAndGlyphs" textLength="42" x="0" y="10.3809">Warning:</text><text fill="#888888" font-family="sans-serif" font-size="10" lengthAdjust="spacingAndGlyphs" textLength="598" x="0" y="22.959">Preliminary. Not all classes are documented here. It is just a rough top down overview to help navigating the basic code pieces</text><text fill="#000000" font-family="sans-serif" font-size="18" lengthAdjust="spacingAndGlyphs" textLength="154" x="940" y="43.8418">OSMD Architecture</text><!--cluster Graphical.VexFlow--><polygon fill="#FFFFFF" filter="url(#f5khk4xsu3qmm)" points="360,672.7969,496,672.7969,503,696.4063,1667,696.4063,1667,1030.7969,360,1030.7969,360,672.7969" style="stroke: #000000; stroke-width: 1.5;"/><line style="stroke: #000000; stroke-width: 1.5;" x1="360" x2="503" y1="696.4063" y2="696.4063"/><text fill="#000000" font-family="sans-serif" font-size="14" font-weight="bold" lengthAdjust="spacingAndGlyphs" textLength="130" x="364" y="689.3301">Graphical.VexFlow</text><!--cluster Graphical--><polygon fill="#FFFFFF" filter="url(#f5khk4xsu3qmm)" points="766,72.2969,839,72.2969,846,95.9063,1794,95.9063,1794,648.7969,766,648.7969,766,72.2969" style="stroke: #000000; stroke-width: 1.5;"/><line style="stroke: #000000; stroke-width: 1.5;" x1="766" x2="846" y1="95.9063" y2="95.9063"/><text fill="#000000" font-family="sans-serif" font-size="14" font-weight="bold" lengthAdjust="spacingAndGlyphs" textLength="67" x="770" y="88.8301">Graphical</text><!--cluster Vex.Flow--><polygon fill="#FFFFFF" filter="url(#f5khk4xsu3qmm)" points="22,822.7969,91,822.7969,98,846.4063,336,846.4063,336,922.7969,22,922.7969,22,822.7969" style="stroke: #000000; stroke-width: 1.5;"/><line style="stroke: #000000; stroke-width: 1.5;" x1="22" x2="98" y1="846.4063" y2="846.4063"/><text fill="#000000" font-family="sans-serif" font-size="14" font-weight="bold" lengthAdjust="spacingAndGlyphs" textLength="63" x="26" y="839.3301">Vex.Flow</text><!--class Graphical.VexFlow.VexFlowBackend--><rect fill="#FEFECE" filter="url(#f5khk4xsu3qmm)" height="48" id="Graphical.VexFlow.VexFlowBackend" style="stroke: #A80036; stroke-width: 1.5;" width="127" x="571.5" y="858.7969"/><ellipse cx="586.5" cy="874.7969" fill="#A9DCDF" rx="11" ry="11" style="stroke: #A80036; stroke-width: 1.0;"/><path d="M588.6875,876.5625 L584.5469,876.5625 L584.125,877.5938 L584.5469,877.5938 Q585.1563,877.5938 585.4219,877.8281 Q585.6875,878.0625 585.6875,878.4531 Q585.6875,878.8281 585.4219,879.0625 Q585.1563,879.2969 584.5469,879.2969 L582.25,879.2969 Q581.6406,879.2969 581.3828,879.0625 Q581.125,878.8281 581.125,878.4375 Q581.125,878.0625 581.3984,877.8203 Q581.6719,877.5781 582.2969,877.5938 L584.9688,870.9375 L583.8594,870.9375 Q583.25,870.9375 582.9844,870.7031 Q582.7188,870.4688 582.7188,870.0781 Q582.7188,869.7031 582.9844,869.4688 Q583.25,869.2344 583.8594,869.2344 L587.5313,869.2344 L590.9219,877.5938 Q591.5156,877.5938 591.7031,877.7344 Q592.0938,878 592.0938,878.4531 Q592.0938,878.8281 591.8359,879.0625 Q591.5781,879.2969 590.9688,879.2969 L588.6719,879.2969 Q588.0625,879.2969 587.7969,879.0625 Q587.5313,878.8281 587.5313,878.4375 Q587.5313,878.0625 587.7969,877.8281 Q588.0625,877.5938 588.6719,877.5938 L589.0938,877.5938 L588.6875,876.5625 Z M587.9688,874.8594 L586.6094,871.4844 L585.2344,874.8594 L587.9688,874.8594 Z "/><text fill="#000000" font-family="sans-serif" font-size="12" font-style="italic" lengthAdjust="spacingAndGlyphs" textLength="95" x="600.5" y="879.707">VexFlowBackend</text><line style="stroke: #A80036; stroke-width: 1.5;" x1="572.5" x2="697.5" y1="890.7969" y2="890.7969"/><line style="stroke: #A80036; stroke-width: 1.5;" x1="572.5" x2="697.5" y1="898.7969" y2="898.7969"/><!--class Graphical.VexFlow.VexFlowMusicSheetDrawer--><rect fill="#FEFECE" filter="url(#f5khk4xsu3qmm)" height="75.6719" id="Graphical.VexFlow.VexFlowMusicSheetDrawer" style="stroke: #A80036; stroke-width: 1.5;" width="181" x="539.5" y="715.7969"/><ellipse cx="554.5" cy="731.7969" fill="#ADD1B2" rx="11" ry="11" style="stroke: #A80036; stroke-width: 1.0;"/><path d="M557.2656,727.6719 Q557.4219,727.4531 557.6094,727.3438 Q557.7969,727.2344 558.0156,727.2344 Q558.3906,727.2344 558.625,727.4922 Q558.8594,727.75 558.8594,728.3594 L558.8594,729.8125 Q558.8594,730.4219 558.625,730.6875 Q558.3906,730.9531 558.0156,730.9531 Q557.6719,730.9531 557.4688,730.75 Q557.2656,730.5625 557.1563,730.0469 Q557.1094,729.6875 556.9219,729.5 Q556.5938,729.125 555.9844,728.9063 Q555.375,728.6875 554.75,728.6875 Q553.9844,728.6875 553.3516,729.0156 Q552.7188,729.3438 552.2266,730.0938 Q551.7344,730.8438 551.7344,731.875 L551.7344,732.9688 Q551.7344,734.2031 552.625,735.0234 Q553.5156,735.8438 555.1094,735.8438 Q556.0469,735.8438 556.7031,735.5938 Q557.0938,735.4375 557.5156,735 Q557.7813,734.7344 557.9297,734.6563 Q558.0781,734.5781 558.2813,734.5781 Q558.6094,734.5781 558.8672,734.8359 Q559.125,735.0938 559.125,735.4375 Q559.125,735.7813 558.7813,736.1875 Q558.2813,736.7656 557.4844,737.0938 Q556.4063,737.5469 555.1094,737.5469 Q553.5938,737.5469 552.3906,736.9219 Q551.4063,736.4219 550.7188,735.3516 Q550.0313,734.2813 550.0313,733 L550.0313,731.8438 Q550.0313,730.5156 550.6484,729.3672 Q551.2656,728.2188 552.3594,727.6016 Q553.4531,726.9844 554.6875,726.9844 Q555.4219,726.9844 556.0703,727.1484 Q556.7188,727.3125 557.2656,727.6719 Z "/><text fill="#000000" font-family="sans-serif" font-size="12" lengthAdjust="spacingAndGlyphs" textLength="149" x="568.5" y="736.707">VexFlowMusicSheetDrawer</text><line style="stroke: #A80036; stroke-width: 1.5;" x1="540.5" x2="719.5" y1="747.7969" y2="747.7969"/><rect fill="none" height="6" style="stroke: #C82930; stroke-width: 1.0;" width="6" x="547.5" y="757.2148"/><text fill="#000000" font-family="sans-serif" font-size="11" lengthAdjust="spacingAndGlyphs" textLength="133" x="559.5" y="763.2158">backend: VexFlowBackend</text><rect fill="none" height="6" style="stroke: #C82930; stroke-width: 1.0;" width="6" x="547.5" y="771.0508"/><text fill="#000000" font-family="sans-serif" font-size="11" lengthAdjust="spacingAndGlyphs" textLength="68" x="559.5" y="777.0518">zoom: number</text><line style="stroke: #A80036; stroke-width: 1.5;" x1="540.5" x2="719.5" y1="783.4688" y2="783.4688"/><!--class Graphical.VexFlow.VexFlowMeasure--><rect fill="#FEFECE" filter="url(#f5khk4xsu3qmm)" height="89.5078" id="Graphical.VexFlow.VexFlowMeasure" style="stroke: #A80036; stroke-width: 1.5;" width="125" x="941.5" y="708.7969"/><ellipse cx="956.5" cy="724.7969" fill="#ADD1B2" rx="11" ry="11" style="stroke: #A80036; stroke-width: 1.0;"/><path d="M959.2656,720.6719 Q959.4219,720.4531 959.6094,720.3438 Q959.7969,720.2344 960.0156,720.2344 Q960.3906,720.2344 960.625,720.4922 Q960.8594,720.75 960.8594,721.3594 L960.8594,722.8125 Q960.8594,723.4219 960.625,723.6875 Q960.3906,723.9531 960.0156,723.9531 Q959.6719,723.9531 959.4688,723.75 Q959.2656,723.5625 959.1563,723.0469 Q959.1094,722.6875 958.9219,722.5 Q958.5938,722.125 957.9844,721.9063 Q957.375,721.6875 956.75,721.6875 Q955.9844,721.6875 955.3516,722.0156 Q954.7188,722.3438 954.2266,723.0938 Q953.7344,723.8438 953.7344,724.875 L953.7344,725.9688 Q953.7344,727.2031 954.625,728.0234 Q955.5156,728.8438 957.1094,728.8438 Q958.0469,728.8438 958.7031,728.5938 Q959.0938,728.4375 959.5156,728 Q959.7813,727.7344 959.9297,727.6563 Q960.0781,727.5781 960.2813,727.5781 Q960.6094,727.5781 960.8672,727.8359 Q961.125,728.0938 961.125,728.4375 Q961.125,728.7813 960.7813,729.1875 Q960.2813,729.7656 959.4844,730.0938 Q958.4063,730.5469 957.1094,730.5469 Q955.5938,730.5469 954.3906,729.9219 Q953.4063,729.4219 952.7188,728.3516 Q952.0313,727.2813 952.0313,726 L952.0313,724.8438 Q952.0313,723.5156 952.6484,722.3672 Q953.2656,721.2188 954.3594,720.6016 Q955.4531,719.9844 956.6875,719.9844 Q957.4219,719.9844 958.0703,720.1484 Q958.7188,720.3125 959.2656,720.6719 Z "/><text fill="#000000" font-family="sans-serif" font-size="12" lengthAdjust="spacingAndGlyphs" textLength="93" x="970.5" y="729.707">VexFlowMeasure</text><line style="stroke: #A80036; stroke-width: 1.5;" x1="942.5" x2="1065.5" y1="740.7969" y2="740.7969"/><rect fill="none" height="6" style="stroke: #C82930; stroke-width: 1.0;" width="6" x="949.5" y="750.2148"/><text fill="#000000" font-family="sans-serif" font-size="11" lengthAdjust="spacingAndGlyphs" textLength="68" x="961.5" y="756.2158">vStave: Stave</text><ellipse cx="952.5" cy="767.0508" fill="none" rx="3" ry="3" style="stroke: #038048; stroke-width: 1.0;"/><text fill="#000000" font-family="sans-serif" font-size="11" lengthAdjust="spacingAndGlyphs" textLength="78" x="961.5" y="770.0518">vfVoices: Voice</text><line style="stroke: #A80036; stroke-width: 1.5;" x1="942.5" x2="1065.5" y1="776.4688" y2="776.4688"/><ellipse cx="952.5" cy="788.8867" fill="#84BE84" rx="3" ry="3" style="stroke: #038048; stroke-width: 1.0;"/><text fill="#000000" font-family="sans-serif" font-size="11" lengthAdjust="spacingAndGlyphs" textLength="99" x="961.5" y="791.8877">getVFStave(): Stave</text><!--class Graphical.VexFlow.VexFlowStaffEntry--><rect fill="#FEFECE" filter="url(#f5khk4xsu3qmm)" height="48" id="Graphical.VexFlow.VexFlowStaffEntry" style="stroke: #A80036; stroke-width: 1.5;" width="128" x="376" y="729.7969"/><ellipse cx="391" cy="745.7969" fill="#ADD1B2" rx="11" ry="11" style="stroke: #A80036; stroke-width: 1.0;"/><path d="M393.7656,741.6719 Q393.9219,741.4531 394.1094,741.3438 Q394.2969,741.2344 394.5156,741.2344 Q394.8906,741.2344 395.125,741.4922 Q395.3594,741.75 395.3594,742.3594 L395.3594,743.8125 Q395.3594,744.4219 395.125,744.6875 Q394.8906,744.9531 394.5156,744.9531 Q394.1719,744.9531 393.9688,744.75 Q393.7656,744.5625 393.6563,744.0469 Q393.6094,743.6875 393.4219,743.5 Q393.0938,743.125 392.4844,742.9063 Q391.875,742.6875 391.25,742.6875 Q390.4844,742.6875 389.8516,743.0156 Q389.2188,743.3438 388.7266,744.0938 Q388.2344,744.8438 388.2344,745.875 L388.2344,746.9688 Q388.2344,748.2031 389.125,749.0234 Q390.0156,749.8438 391.6094,749.8438 Q392.5469,749.8438 393.2031,749.5938 Q393.5938,749.4375 394.0156,749 Q394.2813,748.7344 394.4297,748.6563 Q394.5781,748.5781 394.7813,748.5781 Q395.1094,748.5781 395.3672,748.8359 Q395.625,749.0938 395.625,749.4375 Q395.625,749.7813 395.2813,750.1875 Q394.7813,750.7656 393.9844,751.0938 Q392.9063,751.5469 391.6094,751.5469 Q390.0938,751.5469 388.8906,750.9219 Q387.9063,750.4219 387.2188,749.3516 Q386.5313,748.2813 386.5313,747 L386.5313,745.8438 Q386.5313,744.5156 387.1484,743.3672 Q387.7656,742.2188 388.8594,741.6016 Q389.9531,740.9844 391.1875,740.9844 Q391.9219,740.9844 392.5703,741.1484 Q393.2188,741.3125 393.7656,741.6719 Z "/><text fill="#000000" font-family="sans-serif" font-size="12" lengthAdjust="spacingAndGlyphs" textLength="96" x="405" y="750.707">VexFlowStaffEntry</text><line style="stroke: #A80036; stroke-width: 1.5;" x1="377" x2="503" y1="761.7969" y2="761.7969"/><line style="stroke: #A80036; stroke-width: 1.5;" x1="377" x2="503" y1="769.7969" y2="769.7969"/><!--class Graphical.VexFlow.VexFlowStaffLine--><rect fill="#FEFECE" filter="url(#f5khk4xsu3qmm)" height="48" id="Graphical.VexFlow.VexFlowStaffLine" style="stroke: #A80036; stroke-width: 1.5;" width="125" x="1293.5" y="729.7969"/><ellipse cx="1308.5" cy="745.7969" fill="#ADD1B2" rx="11" ry="11" style="stroke: #A80036; stroke-width: 1.0;"/><path d="M1311.2656,741.6719 Q1311.4219,741.4531 1311.6094,741.3438 Q1311.7969,741.2344 1312.0156,741.2344 Q1312.3906,741.2344 1312.625,741.4922 Q1312.8594,741.75 1312.8594,742.3594 L1312.8594,743.8125 Q1312.8594,744.4219 1312.625,744.6875 Q1312.3906,744.9531 1312.0156,744.9531 Q1311.6719,744.9531 1311.4688,744.75 Q1311.2656,744.5625 1311.1563,744.0469 Q1311.1094,743.6875 1310.9219,743.5 Q1310.5938,743.125 1309.9844,742.9063 Q1309.375,742.6875 1308.75,742.6875 Q1307.9844,742.6875 1307.3516,743.0156 Q1306.7188,743.3438 1306.2266,744.0938 Q1305.7344,744.8438 1305.7344,745.875 L1305.7344,746.9688 Q1305.7344,748.2031 1306.625,749.0234 Q1307.5156,749.8438 1309.1094,749.8438 Q1310.0469,749.8438 1310.7031,749.5938 Q1311.0938,749.4375 1311.5156,749 Q1311.7813,748.7344 1311.9297,748.6563 Q1312.0781,748.5781 1312.2813,748.5781 Q1312.6094,748.5781 1312.8672,748.8359 Q1313.125,749.0938 1313.125,749.4375 Q1313.125,749.7813 1312.7813,750.1875 Q1312.2813,750.7656 1311.4844,751.0938 Q1310.4063,751.5469 1309.1094,751.5469 Q1307.5938,751.5469 1306.3906,750.9219 Q1305.4063,750.4219 1304.7188,749.3516 Q1304.0313,748.2813 1304.0313,747 L1304.0313,745.8438 Q1304.0313,744.5156 1304.6484,743.3672 Q1305.2656,742.2188 1306.3594,741.6016 Q1307.4531,740.9844 1308.6875,740.9844 Q1309.4219,740.9844 1310.0703,741.1484 Q1310.7188,741.3125 1311.2656,741.6719 Z "/><text fill="#000000" font-family="sans-serif" font-size="12" lengthAdjust="spacingAndGlyphs" textLength="93" x="1322.5" y="750.707">VexFlowStaffLine</text><line style="stroke: #A80036; stroke-width: 1.5;" x1="1294.5" x2="1417.5" y1="761.7969" y2="761.7969"/><line style="stroke: #A80036; stroke-width: 1.5;" x1="1294.5" x2="1417.5" y1="769.7969" y2="769.7969"/><!--class Graphical.VexFlow.VexFlowMusicSystem--><rect fill="#FEFECE" filter="url(#f5khk4xsu3qmm)" height="48" id="Graphical.VexFlow.VexFlowMusicSystem" style="stroke: #A80036; stroke-width: 1.5;" width="150" x="756" y="729.7969"/><ellipse cx="771" cy="745.7969" fill="#ADD1B2" rx="11" ry="11" style="stroke: #A80036; stroke-width: 1.0;"/><path d="M773.7656,741.6719 Q773.9219,741.4531 774.1094,741.3438 Q774.2969,741.2344 774.5156,741.2344 Q774.8906,741.2344 775.125,741.4922 Q775.3594,741.75 775.3594,742.3594 L775.3594,743.8125 Q775.3594,744.4219 775.125,744.6875 Q774.8906,744.9531 774.5156,744.9531 Q774.1719,744.9531 773.9688,744.75 Q773.7656,744.5625 773.6563,744.0469 Q773.6094,743.6875 773.4219,743.5 Q773.0938,743.125 772.4844,742.9063 Q771.875,742.6875 771.25,742.6875 Q770.4844,742.6875 769.8516,743.0156 Q769.2188,743.3438 768.7266,744.0938 Q768.2344,744.8438 768.2344,745.875 L768.2344,746.9688 Q768.2344,748.2031 769.125,749.0234 Q770.0156,749.8438 771.6094,749.8438 Q772.5469,749.8438 773.2031,749.5938 Q773.5938,749.4375 774.0156,749 Q774.2813,748.7344 774.4297,748.6563 Q774.5781,748.5781 774.7813,748.5781 Q775.1094,748.5781 775.3672,748.8359 Q775.625,749.0938 775.625,749.4375 Q775.625,749.7813 775.2813,750.1875 Q774.7813,750.7656 773.9844,751.0938 Q772.9063,751.5469 771.6094,751.5469 Q770.0938,751.5469 768.8906,750.9219 Q767.9063,750.4219 767.2188,749.3516 Q766.5313,748.2813 766.5313,747 L766.5313,745.8438 Q766.5313,744.5156 767.1484,743.3672 Q767.7656,742.2188 768.8594,741.6016 Q769.9531,740.9844 771.1875,740.9844 Q771.9219,740.9844 772.5703,741.1484 Q773.2188,741.3125 773.7656,741.6719 Z "/><text fill="#000000" font-family="sans-serif" font-size="12" lengthAdjust="spacingAndGlyphs" textLength="118" x="785" y="750.707">VexFlowMusicSystem</text><line style="stroke: #A80036; stroke-width: 1.5;" x1="757" x2="905" y1="761.7969" y2="761.7969"/><line style="stroke: #A80036; stroke-width: 1.5;" x1="757" x2="905" y1="769.7969" y2="769.7969"/><!--class Graphical.VexFlow.VexFlowGraphicalNote--><rect fill="#FEFECE" filter="url(#f5khk4xsu3qmm)" height="48" id="Graphical.VexFlow.VexFlowGraphicalNote" style="stroke: #A80036; stroke-width: 1.5;" width="156" x="1102" y="729.7969"/><ellipse cx="1117" cy="745.7969" fill="#ADD1B2" rx="11" ry="11" style="stroke: #A80036; stroke-width: 1.0;"/><path d="M1119.7656,741.6719 Q1119.9219,741.4531 1120.1094,741.3438 Q1120.2969,741.2344 1120.5156,741.2344 Q1120.8906,741.2344 1121.125,741.4922 Q1121.3594,741.75 1121.3594,742.3594 L1121.3594,743.8125 Q1121.3594,744.4219 1121.125,744.6875 Q1120.8906,744.9531 1120.5156,744.9531 Q1120.1719,744.9531 1119.9688,744.75 Q1119.7656,744.5625 1119.6563,744.0469 Q1119.6094,743.6875 1119.4219,743.5 Q1119.0938,743.125 1118.4844,742.9063 Q1117.875,742.6875 1117.25,742.6875 Q1116.4844,742.6875 1115.8516,743.0156 Q1115.2188,743.3438 1114.7266,744.0938 Q1114.2344,744.8438 1114.2344,745.875 L1114.2344,746.9688 Q1114.2344,748.2031 1115.125,749.0234 Q1116.0156,749.8438 1117.6094,749.8438 Q1118.5469,749.8438 1119.2031,749.5938 Q1119.5938,749.4375 1120.0156,749 Q1120.2813,748.7344 1120.4297,748.6563 Q1120.5781,748.5781 1120.7813,748.5781 Q1121.1094,748.5781 1121.3672,748.8359 Q1121.625,749.0938 1121.625,749.4375 Q1121.625,749.7813 1121.2813,750.1875 Q1120.7813,750.7656 1119.9844,751.0938 Q1118.9063,751.5469 1117.6094,751.5469 Q1116.0938,751.5469 1114.8906,750.9219 Q1113.9063,750.4219 1113.2188,749.3516 Q1112.5313,748.2813 1112.5313,747 L1112.5313,745.8438 Q1112.5313,744.5156 1113.1484,743.3672 Q1113.7656,742.2188 1114.8594,741.6016 Q1115.9531,740.9844 1117.1875,740.9844 Q1117.9219,740.9844 1118.5703,741.1484 Q1119.2188,741.3125 1119.7656,741.6719 Z "/><text fill="#000000" font-family="sans-serif" font-size="12" lengthAdjust="spacingAndGlyphs" textLength="124" x="1131" y="750.707">VexFlowGraphicalNote</text><line style="stroke: #A80036; stroke-width: 1.5;" x1="1103" x2="1257" y1="761.7969" y2="761.7969"/><line style="stroke: #A80036; stroke-width: 1.5;" x1="1103" x2="1257" y1="769.7969" y2="769.7969"/><!--class Graphical.VexFlow.VexFlowMusicSheetCalculator--><rect fill="#FEFECE" filter="url(#f5khk4xsu3qmm)" height="48" id="Graphical.VexFlow.VexFlowMusicSheetCalculator" style="stroke: #A80036; stroke-width: 1.5;" width="197" x="1453.5" y="729.7969"/><ellipse cx="1468.5" cy="745.7969" fill="#ADD1B2" rx="11" ry="11" style="stroke: #A80036; stroke-width: 1.0;"/><path d="M1471.2656,741.6719 Q1471.4219,741.4531 1471.6094,741.3438 Q1471.7969,741.2344 1472.0156,741.2344 Q1472.3906,741.2344 1472.625,741.4922 Q1472.8594,741.75 1472.8594,742.3594 L1472.8594,743.8125 Q1472.8594,744.4219 1472.625,744.6875 Q1472.3906,744.9531 1472.0156,744.9531 Q1471.6719,744.9531 1471.4688,744.75 Q1471.2656,744.5625 1471.1563,744.0469 Q1471.1094,743.6875 1470.9219,743.5 Q1470.5938,743.125 1469.9844,742.9063 Q1469.375,742.6875 1468.75,742.6875 Q1467.9844,742.6875 1467.3516,743.0156 Q1466.7188,743.3438 1466.2266,744.0938 Q1465.7344,744.8438 1465.7344,745.875 L1465.7344,746.9688 Q1465.7344,748.2031 1466.625,749.0234 Q1467.5156,749.8438 1469.1094,749.8438 Q1470.0469,749.8438 1470.7031,749.5938 Q1471.0938,749.4375 1471.5156,749 Q1471.7813,748.7344 1471.9297,748.6563 Q1472.0781,748.5781 1472.2813,748.5781 Q1472.6094,748.5781 1472.8672,748.8359 Q1473.125,749.0938 1473.125,749.4375 Q1473.125,749.7813 1472.7813,750.1875 Q1472.2813,750.7656 1471.4844,751.0938 Q1470.4063,751.5469 1469.1094,751.5469 Q1467.5938,751.5469 1466.3906,750.9219 Q1465.4063,750.4219 1464.7188,749.3516 Q1464.0313,748.2813 1464.0313,747 L1464.0313,745.8438 Q1464.0313,744.5156 1464.6484,743.3672 Q1465.2656,742.2188 1466.3594,741.6016 Q1467.4531,740.9844 1468.6875,740.9844 Q1469.4219,740.9844 1470.0703,741.1484 Q1470.7188,741.3125 1471.2656,741.6719 Z "/><text fill="#000000" font-family="sans-serif" font-size="12" lengthAdjust="spacingAndGlyphs" textLength="165" x="1482.5" y="750.707">VexFlowMusicSheetCalculator</text><line style="stroke: #A80036; stroke-width: 1.5;" x1="1454.5" x2="1649.5" y1="761.7969" y2="761.7969"/><line style="stroke: #A80036; stroke-width: 1.5;" x1="1454.5" x2="1649.5" y1="769.7969" y2="769.7969"/><!--class Graphical.VexFlow.SvgVexFlowBackend--><rect fill="#FEFECE" filter="url(#f5khk4xsu3qmm)" height="48" id="Graphical.VexFlow.SvgVexFlowBackend" style="stroke: #A80036; stroke-width: 1.5;" width="145" x="469.5" y="966.7969"/><ellipse cx="484.5" cy="982.7969" fill="#ADD1B2" rx="11" ry="11" style="stroke: #A80036; stroke-width: 1.0;"/><path d="M487.2656,978.6719 Q487.4219,978.4531 487.6094,978.3438 Q487.7969,978.2344 488.0156,978.2344 Q488.3906,978.2344 488.625,978.4922 Q488.8594,978.75 488.8594,979.3594 L488.8594,980.8125 Q488.8594,981.4219 488.625,981.6875 Q488.3906,981.9531 488.0156,981.9531 Q487.6719,981.9531 487.4688,981.75 Q487.2656,981.5625 487.1563,981.0469 Q487.1094,980.6875 486.9219,980.5 Q486.5938,980.125 485.9844,979.9063 Q485.375,979.6875 484.75,979.6875 Q483.9844,979.6875 483.3516,980.0156 Q482.7188,980.3438 482.2266,981.0938 Q481.7344,981.8438 481.7344,982.875 L481.7344,983.9688 Q481.7344,985.2031 482.625,986.0234 Q483.5156,986.8438 485.1094,986.8438 Q486.0469,986.8438 486.7031,986.5938 Q487.0938,986.4375 487.5156,986 Q487.7813,985.7344 487.9297,985.6563 Q488.0781,985.5781 488.2813,985.5781 Q488.6094,985.5781 488.8672,985.8359 Q489.125,986.0938 489.125,986.4375 Q489.125,986.7813 488.7813,987.1875 Q488.2813,987.7656 487.4844,988.0938 Q486.4063,988.5469 485.1094,988.5469 Q483.5938,988.5469 482.3906,987.9219 Q481.4063,987.4219 480.7188,986.3516 Q480.0313,985.2813 480.0313,984 L480.0313,982.8438 Q480.0313,981.5156 480.6484,980.3672 Q481.2656,979.2188 482.3594,978.6016 Q483.4531,977.9844 484.6875,977.9844 Q485.4219,977.9844 486.0703,978.1484 Q486.7188,978.3125 487.2656,978.6719 Z "/><text fill="#000000" font-family="sans-serif" font-size="12" lengthAdjust="spacingAndGlyphs" textLength="113" x="498.5" y="987.707">SvgVexFlowBackend</text><line style="stroke: #A80036; stroke-width: 1.5;" x1="470.5" x2="613.5" y1="998.7969" y2="998.7969"/><line style="stroke: #A80036; stroke-width: 1.5;" x1="470.5" x2="613.5" y1="1006.7969" y2="1006.7969"/><!--class Graphical.VexFlow.CanvasVexFlowBackend--><rect fill="#FEFECE" filter="url(#f5khk4xsu3qmm)" height="48" id="Graphical.VexFlow.CanvasVexFlowBackend" style="stroke: #A80036; stroke-width: 1.5;" width="167" x="649.5" y="966.7969"/><ellipse cx="664.5" cy="982.7969" fill="#ADD1B2" rx="11" ry="11" style="stroke: #A80036; stroke-width: 1.0;"/><path d="M667.2656,978.6719 Q667.4219,978.4531 667.6094,978.3438 Q667.7969,978.2344 668.0156,978.2344 Q668.3906,978.2344 668.625,978.4922 Q668.8594,978.75 668.8594,979.3594 L668.8594,980.8125 Q668.8594,981.4219 668.625,981.6875 Q668.3906,981.9531 668.0156,981.9531 Q667.6719,981.9531 667.4688,981.75 Q667.2656,981.5625 667.1563,981.0469 Q667.1094,980.6875 666.9219,980.5 Q666.5938,980.125 665.9844,979.9063 Q665.375,979.6875 664.75,979.6875 Q663.9844,979.6875 663.3516,980.0156 Q662.7188,980.3438 662.2266,981.0938 Q661.7344,981.8438 661.7344,982.875 L661.7344,983.9688 Q661.7344,985.2031 662.625,986.0234 Q663.5156,986.8438 665.1094,986.8438 Q666.0469,986.8438 666.7031,986.5938 Q667.0938,986.4375 667.5156,986 Q667.7813,985.7344 667.9297,985.6563 Q668.0781,985.5781 668.2813,985.5781 Q668.6094,985.5781 668.8672,985.8359 Q669.125,986.0938 669.125,986.4375 Q669.125,986.7813 668.7813,987.1875 Q668.2813,987.7656 667.4844,988.0938 Q666.4063,988.5469 665.1094,988.5469 Q663.5938,988.5469 662.3906,987.9219 Q661.4063,987.4219 660.7188,986.3516 Q660.0313,985.2813 660.0313,984 L660.0313,982.8438 Q660.0313,981.5156 660.6484,980.3672 Q661.2656,979.2188 662.3594,978.6016 Q663.4531,977.9844 664.6875,977.9844 Q665.4219,977.9844 666.0703,978.1484 Q666.7188,978.3125 667.2656,978.6719 Z "/><text fill="#000000" font-family="sans-serif" font-size="12" lengthAdjust="spacingAndGlyphs" textLength="135" x="678.5" y="987.707">CanvasVexFlowBackend</text><line style="stroke: #A80036; stroke-width: 1.5;" x1="650.5" x2="815.5" y1="998.7969" y2="998.7969"/><line style="stroke: #A80036; stroke-width: 1.5;" x1="650.5" x2="815.5" y1="1006.7969" y2="1006.7969"/><!--class Graphical.StaffMeasure--><rect fill="#FEFECE" filter="url(#f5khk4xsu3qmm)" height="48" id="Graphical.StaffMeasure" style="stroke: #A80036; stroke-width: 1.5;" width="103" x="952.5" y="584.7969"/><ellipse cx="967.5" cy="600.7969" fill="#A9DCDF" rx="11" ry="11" style="stroke: #A80036; stroke-width: 1.0;"/><path d="M969.6875,602.5625 L965.5469,602.5625 L965.125,603.5938 L965.5469,603.5938 Q966.1563,603.5938 966.4219,603.8281 Q966.6875,604.0625 966.6875,604.4531 Q966.6875,604.8281 966.4219,605.0625 Q966.1563,605.2969 965.5469,605.2969 L963.25,605.2969 Q962.6406,605.2969 962.3828,605.0625 Q962.125,604.8281 962.125,604.4375 Q962.125,604.0625 962.3984,603.8203 Q962.6719,603.5781 963.2969,603.5938 L965.9688,596.9375 L964.8594,596.9375 Q964.25,596.9375 963.9844,596.7031 Q963.7188,596.4688 963.7188,596.0781 Q963.7188,595.7031 963.9844,595.4688 Q964.25,595.2344 964.8594,595.2344 L968.5313,595.2344 L971.9219,603.5938 Q972.5156,603.5938 972.7031,603.7344 Q973.0938,604 973.0938,604.4531 Q973.0938,604.8281 972.8359,605.0625 Q972.5781,605.2969 971.9688,605.2969 L969.6719,605.2969 Q969.0625,605.2969 968.7969,605.0625 Q968.5313,604.8281 968.5313,604.4375 Q968.5313,604.0625 968.7969,603.8281 Q969.0625,603.5938 969.6719,603.5938 L970.0938,603.5938 L969.6875,602.5625 Z M968.9688,600.8594 L967.6094,597.4844 L966.2344,600.8594 L968.9688,600.8594 Z "/><text fill="#000000" font-family="sans-serif" font-size="12" font-style="italic" lengthAdjust="spacingAndGlyphs" textLength="71" x="981.5" y="605.707">StaffMeasure</text><line style="stroke: #A80036; stroke-width: 1.5;" x1="953.5" x2="1054.5" y1="616.7969" y2="616.7969"/><line style="stroke: #A80036; stroke-width: 1.5;" x1="953.5" x2="1054.5" y1="624.7969" y2="624.7969"/><!--class Graphical.MusicSheetCalculator--><rect fill="#FEFECE" filter="url(#f5khk4xsu3qmm)" height="48" id="Graphical.MusicSheetCalculator" style="stroke: #A80036; stroke-width: 1.5;" width="151" x="1485.5" y="449.2969"/><ellipse cx="1500.5" cy="465.2969" fill="#A9DCDF" rx="11" ry="11" style="stroke: #A80036; stroke-width: 1.0;"/><path d="M1502.6875,467.0625 L1498.5469,467.0625 L1498.125,468.0938 L1498.5469,468.0938 Q1499.1563,468.0938 1499.4219,468.3281 Q1499.6875,468.5625 1499.6875,468.9531 Q1499.6875,469.3281 1499.4219,469.5625 Q1499.1563,469.7969 1498.5469,469.7969 L1496.25,469.7969 Q1495.6406,469.7969 1495.3828,469.5625 Q1495.125,469.3281 1495.125,468.9375 Q1495.125,468.5625 1495.3984,468.3203 Q1495.6719,468.0781 1496.2969,468.0938 L1498.9688,461.4375 L1497.8594,461.4375 Q1497.25,461.4375 1496.9844,461.2031 Q1496.7188,460.9688 1496.7188,460.5781 Q1496.7188,460.2031 1496.9844,459.9688 Q1497.25,459.7344 1497.8594,459.7344 L1501.5313,459.7344 L1504.9219,468.0938 Q1505.5156,468.0938 1505.7031,468.2344 Q1506.0938,468.5 1506.0938,468.9531 Q1506.0938,469.3281 1505.8359,469.5625 Q1505.5781,469.7969 1504.9688,469.7969 L1502.6719,469.7969 Q1502.0625,469.7969 1501.7969,469.5625 Q1501.5313,469.3281 1501.5313,468.9375 Q1501.5313,468.5625 1501.7969,468.3281 Q1502.0625,468.0938 1502.6719,468.0938 L1503.0938,468.0938 L1502.6875,467.0625 Z M1501.9688,465.3594 L1500.6094,461.9844 L1499.2344,465.3594 L1501.9688,465.3594 Z "/><text fill="#000000" font-family="sans-serif" font-size="12" font-style="italic" lengthAdjust="spacingAndGlyphs" textLength="119" x="1514.5" y="470.207">MusicSheetCalculator</text><line style="stroke: #A80036; stroke-width: 1.5;" x1="1486.5" x2="1635.5" y1="481.2969" y2="481.2969"/><line style="stroke: #A80036; stroke-width: 1.5;" x1="1486.5" x2="1635.5" y1="489.2969" y2="489.2969"/><!--class Graphical.MusicSystem--><rect fill="#FEFECE" filter="url(#f5khk4xsu3qmm)" height="89.5078" id="Graphical.MusicSystem" style="stroke: #A80036; stroke-width: 1.5;" width="202" x="1065" y="271.7969"/><ellipse cx="1125.75" cy="287.7969" fill="#A9DCDF" rx="11" ry="11" style="stroke: #A80036; stroke-width: 1.0;"/><path d="M1127.9375,289.5625 L1123.7969,289.5625 L1123.375,290.5938 L1123.7969,290.5938 Q1124.4063,290.5938 1124.6719,290.8281 Q1124.9375,291.0625 1124.9375,291.4531 Q1124.9375,291.8281 1124.6719,292.0625 Q1124.4063,292.2969 1123.7969,292.2969 L1121.5,292.2969 Q1120.8906,292.2969 1120.6328,292.0625 Q1120.375,291.8281 1120.375,291.4375 Q1120.375,291.0625 1120.6484,290.8203 Q1120.9219,290.5781 1121.5469,290.5938 L1124.2188,283.9375 L1123.1094,283.9375 Q1122.5,283.9375 1122.2344,283.7031 Q1121.9688,283.4688 1121.9688,283.0781 Q1121.9688,282.7031 1122.2344,282.4688 Q1122.5,282.2344 1123.1094,282.2344 L1126.7813,282.2344 L1130.1719,290.5938 Q1130.7656,290.5938 1130.9531,290.7344 Q1131.3438,291 1131.3438,291.4531 Q1131.3438,291.8281 1131.0859,292.0625 Q1130.8281,292.2969 1130.2188,292.2969 L1127.9219,292.2969 Q1127.3125,292.2969 1127.0469,292.0625 Q1126.7813,291.8281 1126.7813,291.4375 Q1126.7813,291.0625 1127.0469,290.8281 Q1127.3125,290.5938 1127.9219,290.5938 L1128.3438,290.5938 L1127.9375,289.5625 Z M1127.2188,287.8594 L1125.8594,284.4844 L1124.4844,287.8594 L1127.2188,287.8594 Z "/><text fill="#000000" font-family="sans-serif" font-size="12" font-style="italic" lengthAdjust="spacingAndGlyphs" textLength="72" x="1146.25" y="292.707">MusicSystem</text><line style="stroke: #A80036; stroke-width: 1.5;" x1="1066" x2="1266" y1="303.7969" y2="303.7969"/><polygon fill="none" points="1076,311.2148,1080,315.2148,1076,319.2148,1072,315.2148" style="stroke: #B38D22; stroke-width: 1.0;"/><text fill="#000000" font-family="sans-serif" font-size="11" lengthAdjust="spacingAndGlyphs" textLength="105" x="1085" y="319.2158">staffLines: StaffLine[]</text><polygon fill="none" points="1076,325.0508,1080,329.0508,1076,333.0508,1072,329.0508" style="stroke: #B38D22; stroke-width: 1.0;"/><text fill="#000000" font-family="sans-serif" font-size="11" lengthAdjust="spacingAndGlyphs" textLength="176" x="1085" y="333.0518">graphicalMeasures: StaffMeasure[][]</text><polygon fill="none" points="1076,338.8867,1080,342.8867,1076,346.8867,1072,342.8867" style="stroke: #B38D22; stroke-width: 1.0;"/><text fill="#000000" font-family="sans-serif" font-size="11" lengthAdjust="spacingAndGlyphs" textLength="135" x="1085" y="346.8877">parent: GraphicalMusicPage</text><line style="stroke: #A80036; stroke-width: 1.5;" x1="1066" x2="1266" y1="353.3047" y2="353.3047"/><!--class Graphical.StaffLine--><rect fill="#FEFECE" filter="url(#f5khk4xsu3qmm)" height="75.6719" id="Graphical.StaffLine" style="stroke: #A80036; stroke-width: 1.5;" width="191" x="1040.5" y="435.2969"/><ellipse cx="1107.75" cy="451.2969" fill="#A9DCDF" rx="11" ry="11" style="stroke: #A80036; stroke-width: 1.0;"/><path d="M1109.9375,453.0625 L1105.7969,453.0625 L1105.375,454.0938 L1105.7969,454.0938 Q1106.4063,454.0938 1106.6719,454.3281 Q1106.9375,454.5625 1106.9375,454.9531 Q1106.9375,455.3281 1106.6719,455.5625 Q1106.4063,455.7969 1105.7969,455.7969 L1103.5,455.7969 Q1102.8906,455.7969 1102.6328,455.5625 Q1102.375,455.3281 1102.375,454.9375 Q1102.375,454.5625 1102.6484,454.3203 Q1102.9219,454.0781 1103.5469,454.0938 L1106.2188,447.4375 L1105.1094,447.4375 Q1104.5,447.4375 1104.2344,447.2031 Q1103.9688,446.9688 1103.9688,446.5781 Q1103.9688,446.2031 1104.2344,445.9688 Q1104.5,445.7344 1105.1094,445.7344 L1108.7813,445.7344 L1112.1719,454.0938 Q1112.7656,454.0938 1112.9531,454.2344 Q1113.3438,454.5 1113.3438,454.9531 Q1113.3438,455.3281 1113.0859,455.5625 Q1112.8281,455.7969 1112.2188,455.7969 L1109.9219,455.7969 Q1109.3125,455.7969 1109.0469,455.5625 Q1108.7813,455.3281 1108.7813,454.9375 Q1108.7813,454.5625 1109.0469,454.3281 Q1109.3125,454.0938 1109.9219,454.0938 L1110.3438,454.0938 L1109.9375,453.0625 Z M1109.2188,451.3594 L1107.8594,447.9844 L1106.4844,451.3594 L1109.2188,451.3594 Z "/><text fill="#000000" font-family="sans-serif" font-size="12" font-style="italic" lengthAdjust="spacingAndGlyphs" textLength="48" x="1128.25" y="456.207">StaffLine</text><line style="stroke: #A80036; stroke-width: 1.5;" x1="1041.5" x2="1230.5" y1="467.2969" y2="467.2969"/><polygon fill="none" points="1051.5,474.7148,1055.5,478.7148,1051.5,482.7148,1047.5,478.7148" style="stroke: #B38D22; stroke-width: 1.0;"/><text fill="#000000" font-family="sans-serif" font-size="11" lengthAdjust="spacingAndGlyphs" textLength="126" x="1060.5" y="482.7158">measures: StaffMeasure[]</text><polygon fill="none" points="1051.5,488.5508,1055.5,492.5508,1051.5,496.5508,1047.5,492.5508" style="stroke: #B38D22; stroke-width: 1.0;"/><text fill="#000000" font-family="sans-serif" font-size="11" lengthAdjust="spacingAndGlyphs" textLength="165" x="1060.5" y="496.5518">parentMusicSystem: MusicSystem</text><line style="stroke: #A80036; stroke-width: 1.5;" x1="1041.5" x2="1230.5" y1="502.9688" y2="502.9688"/><!--class Graphical.MusicSheet--><rect fill="#FEFECE" filter="url(#f5khk4xsu3qmm)" height="103.3438" id="Graphical.MusicSheet" style="stroke: #A80036; stroke-width: 1.5;" width="106" x="1672" y="421.7969"/><ellipse cx="1691.5" cy="437.7969" fill="#ADD1B2" rx="11" ry="11" style="stroke: #A80036; stroke-width: 1.0;"/><path d="M1694.2656,433.6719 Q1694.4219,433.4531 1694.6094,433.3438 Q1694.7969,433.2344 1695.0156,433.2344 Q1695.3906,433.2344 1695.625,433.4922 Q1695.8594,433.75 1695.8594,434.3594 L1695.8594,435.8125 Q1695.8594,436.4219 1695.625,436.6875 Q1695.3906,436.9531 1695.0156,436.9531 Q1694.6719,436.9531 1694.4688,436.75 Q1694.2656,436.5625 1694.1563,436.0469 Q1694.1094,435.6875 1693.9219,435.5 Q1693.5938,435.125 1692.9844,434.9063 Q1692.375,434.6875 1691.75,434.6875 Q1690.9844,434.6875 1690.3516,435.0156 Q1689.7188,435.3438 1689.2266,436.0938 Q1688.7344,436.8438 1688.7344,437.875 L1688.7344,438.9688 Q1688.7344,440.2031 1689.625,441.0234 Q1690.5156,441.8438 1692.1094,441.8438 Q1693.0469,441.8438 1693.7031,441.5938 Q1694.0938,441.4375 1694.5156,441 Q1694.7813,440.7344 1694.9297,440.6563 Q1695.0781,440.5781 1695.2813,440.5781 Q1695.6094,440.5781 1695.8672,440.8359 Q1696.125,441.0938 1696.125,441.4375 Q1696.125,441.7813 1695.7813,442.1875 Q1695.2813,442.7656 1694.4844,443.0938 Q1693.4063,443.5469 1692.1094,443.5469 Q1690.5938,443.5469 1689.3906,442.9219 Q1688.4063,442.4219 1687.7188,441.3516 Q1687.0313,440.2813 1687.0313,439 L1687.0313,437.8438 Q1687.0313,436.5156 1687.6484,435.3672 Q1688.2656,434.2188 1689.3594,433.6016 Q1690.4531,432.9844 1691.6875,432.9844 Q1692.4219,432.9844 1693.0703,433.1484 Q1693.7188,433.3125 1694.2656,433.6719 Z "/><text fill="#000000" font-family="sans-serif" font-size="12" lengthAdjust="spacingAndGlyphs" textLength="64" x="1706.5" y="442.707">MusicSheet</text><line style="stroke: #A80036; stroke-width: 1.5;" x1="1673" x2="1777" y1="453.7969" y2="453.7969"/><rect fill="none" height="6" style="stroke: #C82930; stroke-width: 1.0;" width="6" x="1680" y="463.2148"/><text fill="#000000" font-family="sans-serif" font-size="11" lengthAdjust="spacingAndGlyphs" textLength="48" x="1692" y="469.2158">title: Label</text><rect fill="none" height="6" style="stroke: #C82930; stroke-width: 1.0;" width="6" x="1680" y="477.0508"/><text fill="#000000" font-family="sans-serif" font-size="11" lengthAdjust="spacingAndGlyphs" textLength="66" x="1692" y="483.0518">subtitle: Label</text><rect fill="none" height="6" style="stroke: #C82930; stroke-width: 1.0;" width="6" x="1680" y="490.8867"/><text fill="#000000" font-family="sans-serif" font-size="11" lengthAdjust="spacingAndGlyphs" textLength="80" x="1692" y="496.8877">composer: Label</text><rect fill="none" height="6" style="stroke: #C82930; stroke-width: 1.0;" width="6" x="1680" y="504.7227"/><text fill="#000000" font-family="sans-serif" font-size="11" lengthAdjust="spacingAndGlyphs" textLength="63" x="1692" y="510.7236">lyricist: Label</text><line style="stroke: #A80036; stroke-width: 1.5;" x1="1673" x2="1777" y1="517.1406" y2="517.1406"/><!--class Graphical.MusicSheetDrawer--><rect fill="#FEFECE" filter="url(#f5khk4xsu3qmm)" height="75.6719" id="Graphical.MusicSheetDrawer" style="stroke: #A80036; stroke-width: 1.5;" width="322" x="782" y="108.2969"/><ellipse cx="887.75" cy="124.2969" fill="#A9DCDF" rx="11" ry="11" style="stroke: #A80036; stroke-width: 1.0;"/><path d="M889.9375,126.0625 L885.7969,126.0625 L885.375,127.0938 L885.7969,127.0938 Q886.4063,127.0938 886.6719,127.3281 Q886.9375,127.5625 886.9375,127.9531 Q886.9375,128.3281 886.6719,128.5625 Q886.4063,128.7969 885.7969,128.7969 L883.5,128.7969 Q882.8906,128.7969 882.6328,128.5625 Q882.375,128.3281 882.375,127.9375 Q882.375,127.5625 882.6484,127.3203 Q882.9219,127.0781 883.5469,127.0938 L886.2188,120.4375 L885.1094,120.4375 Q884.5,120.4375 884.2344,120.2031 Q883.9688,119.9688 883.9688,119.5781 Q883.9688,119.2031 884.2344,118.9688 Q884.5,118.7344 885.1094,118.7344 L888.7813,118.7344 L892.1719,127.0938 Q892.7656,127.0938 892.9531,127.2344 Q893.3438,127.5 893.3438,127.9531 Q893.3438,128.3281 893.0859,128.5625 Q892.8281,128.7969 892.2188,128.7969 L889.9219,128.7969 Q889.3125,128.7969 889.0469,128.5625 Q888.7813,128.3281 888.7813,127.9375 Q888.7813,127.5625 889.0469,127.3281 Q889.3125,127.0938 889.9219,127.0938 L890.3438,127.0938 L889.9375,126.0625 Z M889.2188,124.3594 L887.8594,120.9844 L886.4844,124.3594 L889.2188,124.3594 Z "/><text fill="#000000" font-family="sans-serif" font-size="12" font-style="italic" lengthAdjust="spacingAndGlyphs" textLength="102" x="908.25" y="129.207">MusicSheetDrawer</text><line style="stroke: #A80036; stroke-width: 1.5;" x1="783" x2="1103" y1="140.2969" y2="140.2969"/><polygon fill="none" points="793,147.7148,797,151.7148,793,155.7148,789,151.7148" style="stroke: #B38D22; stroke-width: 1.0;"/><text fill="#000000" font-family="sans-serif" font-size="11" lengthAdjust="spacingAndGlyphs" textLength="208" x="802" y="155.7158">graphicalMusicSheet: GraphicalMusicSheet</text><line style="stroke: #A80036; stroke-width: 1.5;" x1="783" x2="1103" y1="162.1328" y2="162.1328"/><ellipse cx="793" cy="174.5508" fill="#84BE84" rx="3" ry="3" style="stroke: #038048; stroke-width: 1.0;"/><text fill="#000000" font-family="sans-serif" font-size="11" lengthAdjust="spacingAndGlyphs" textLength="296" x="802" y="177.5518">drawSheet(graphicalMusicSheet: GraphicalMusicSheet): void</text><!--class Graphical.GraphicalStaffEntry--><rect fill="#FEFECE" filter="url(#f5khk4xsu3qmm)" height="75.6719" id="Graphical.GraphicalStaffEntry" style="stroke: #A80036; stroke-width: 1.5;" width="174" x="782" y="278.7969"/><ellipse cx="813.65" cy="294.7969" fill="#A9DCDF" rx="11" ry="11" style="stroke: #A80036; stroke-width: 1.0;"/><path d="M815.8375,296.5625 L811.6969,296.5625 L811.275,297.5938 L811.6969,297.5938 Q812.3063,297.5938 812.5719,297.8281 Q812.8375,298.0625 812.8375,298.4531 Q812.8375,298.8281 812.5719,299.0625 Q812.3063,299.2969 811.6969,299.2969 L809.4,299.2969 Q808.7906,299.2969 808.5328,299.0625 Q808.275,298.8281 808.275,298.4375 Q808.275,298.0625 808.5484,297.8203 Q808.8219,297.5781 809.4469,297.5938 L812.1188,290.9375 L811.0094,290.9375 Q810.4,290.9375 810.1344,290.7031 Q809.8688,290.4688 809.8688,290.0781 Q809.8688,289.7031 810.1344,289.4688 Q810.4,289.2344 811.0094,289.2344 L814.6813,289.2344 L818.0719,297.5938 Q818.6656,297.5938 818.8531,297.7344 Q819.2438,298 819.2438,298.4531 Q819.2438,298.8281 818.9859,299.0625 Q818.7281,299.2969 818.1188,299.2969 L815.8219,299.2969 Q815.2125,299.2969 814.9469,299.0625 Q814.6813,298.8281 814.6813,298.4375 Q814.6813,298.0625 814.9469,297.8281 Q815.2125,297.5938 815.8219,297.5938 L816.2438,297.5938 L815.8375,296.5625 Z M815.1188,294.8594 L813.7594,291.4844 L812.3844,294.8594 L815.1188,294.8594 Z "/><text fill="#000000" font-family="sans-serif" font-size="12" font-style="italic" lengthAdjust="spacingAndGlyphs" textLength="105" x="831.35" y="299.707">GraphicalStaffEntry</text><line style="stroke: #A80036; stroke-width: 1.5;" x1="783" x2="955" y1="310.7969" y2="310.7969"/><ellipse cx="793" cy="323.2148" fill="none" rx="3" ry="3" style="stroke: #038048; stroke-width: 1.0;"/><text fill="#000000" font-family="sans-serif" font-size="11" lengthAdjust="spacingAndGlyphs" textLength="148" x="802" y="326.2158">parentMeasure: StaffMeasure;</text><ellipse cx="793" cy="337.0508" fill="none" rx="3" ry="3" style="stroke: #038048; stroke-width: 1.0;"/><text fill="#000000" font-family="sans-serif" font-size="11" lengthAdjust="spacingAndGlyphs" textLength="113" x="802" y="340.0518">notes: GraphicalNote[][]</text><line style="stroke: #A80036; stroke-width: 1.5;" x1="783" x2="955" y1="346.4688" y2="346.4688"/><!--class Graphical.BoundingBox--><rect fill="#FEFECE" filter="url(#f5khk4xsu3qmm)" height="61.8359" id="Graphical.BoundingBox" style="stroke: #A80036; stroke-width: 1.5;" width="168" x="1376" y="285.7969"/><ellipse cx="1419.35" cy="301.7969" fill="#ADD1B2" rx="11" ry="11" style="stroke: #A80036; stroke-width: 1.0;"/><path d="M1422.1156,297.6719 Q1422.2719,297.4531 1422.4594,297.3438 Q1422.6469,297.2344 1422.8656,297.2344 Q1423.2406,297.2344 1423.475,297.4922 Q1423.7094,297.75 1423.7094,298.3594 L1423.7094,299.8125 Q1423.7094,300.4219 1423.475,300.6875 Q1423.2406,300.9531 1422.8656,300.9531 Q1422.5219,300.9531 1422.3188,300.75 Q1422.1156,300.5625 1422.0063,300.0469 Q1421.9594,299.6875 1421.7719,299.5 Q1421.4438,299.125 1420.8344,298.9063 Q1420.225,298.6875 1419.6,298.6875 Q1418.8344,298.6875 1418.2016,299.0156 Q1417.5688,299.3438 1417.0766,300.0938 Q1416.5844,300.8438 1416.5844,301.875 L1416.5844,302.9688 Q1416.5844,304.2031 1417.475,305.0234 Q1418.3656,305.8438 1419.9594,305.8438 Q1420.8969,305.8438 1421.5531,305.5938 Q1421.9438,305.4375 1422.3656,305 Q1422.6313,304.7344 1422.7797,304.6563 Q1422.9281,304.5781 1423.1313,304.5781 Q1423.4594,304.5781 1423.7172,304.8359 Q1423.975,305.0938 1423.975,305.4375 Q1423.975,305.7813 1423.6313,306.1875 Q1423.1313,306.7656 1422.3344,307.0938 Q1421.2563,307.5469 1419.9594,307.5469 Q1418.4438,307.5469 1417.2406,306.9219 Q1416.2563,306.4219 1415.5688,305.3516 Q1414.8813,304.2813 1414.8813,303 L1414.8813,301.8438 Q1414.8813,300.5156 1415.4984,299.3672 Q1416.1156,298.2188 1417.2094,297.6016 Q1418.3031,296.9844 1419.5375,296.9844 Q1420.2719,296.9844 1420.9203,297.1484 Q1421.5688,297.3125 1422.1156,297.6719 Z "/><text fill="#000000" font-family="sans-serif" font-size="12" lengthAdjust="spacingAndGlyphs" textLength="73" x="1439.65" y="306.707">BoundingBox</text><line style="stroke: #A80036; stroke-width: 1.5;" x1="1377" x2="1543" y1="317.7969" y2="317.7969"/><ellipse cx="1387" cy="330.2148" fill="none" rx="3" ry="3" style="stroke: #038048; stroke-width: 1.0;"/><text fill="#000000" font-family="sans-serif" font-size="11" lengthAdjust="spacingAndGlyphs" textLength="142" x="1396" y="333.2158">ChildElements[]: BoundingBox</text><line style="stroke: #A80036; stroke-width: 1.5;" x1="1377" x2="1543" y1="339.6328" y2="339.6328"/><!--class Graphical.GraphicalMusicSheet--><rect fill="#FEFECE" filter="url(#f5khk4xsu3qmm)" height="48" id="Graphical.GraphicalMusicSheet" style="stroke: #A80036; stroke-width: 1.5;" width="149" x="1597.5" y="292.7969"/><ellipse cx="1612.5" cy="308.7969" fill="#ADD1B2" rx="11" ry="11" style="stroke: #A80036; stroke-width: 1.0;"/><path d="M1615.2656,304.6719 Q1615.4219,304.4531 1615.6094,304.3438 Q1615.7969,304.2344 1616.0156,304.2344 Q1616.3906,304.2344 1616.625,304.4922 Q1616.8594,304.75 1616.8594,305.3594 L1616.8594,306.8125 Q1616.8594,307.4219 1616.625,307.6875 Q1616.3906,307.9531 1616.0156,307.9531 Q1615.6719,307.9531 1615.4688,307.75 Q1615.2656,307.5625 1615.1563,307.0469 Q1615.1094,306.6875 1614.9219,306.5 Q1614.5938,306.125 1613.9844,305.9063 Q1613.375,305.6875 1612.75,305.6875 Q1611.9844,305.6875 1611.3516,306.0156 Q1610.7188,306.3438 1610.2266,307.0938 Q1609.7344,307.8438 1609.7344,308.875 L1609.7344,309.9688 Q1609.7344,311.2031 1610.625,312.0234 Q1611.5156,312.8438 1613.1094,312.8438 Q1614.0469,312.8438 1614.7031,312.5938 Q1615.0938,312.4375 1615.5156,312 Q1615.7813,311.7344 1615.9297,311.6563 Q1616.0781,311.5781 1616.2813,311.5781 Q1616.6094,311.5781 1616.8672,311.8359 Q1617.125,312.0938 1617.125,312.4375 Q1617.125,312.7813 1616.7813,313.1875 Q1616.2813,313.7656 1615.4844,314.0938 Q1614.4063,314.5469 1613.1094,314.5469 Q1611.5938,314.5469 1610.3906,313.9219 Q1609.4063,313.4219 1608.7188,312.3516 Q1608.0313,311.2813 1608.0313,310 L1608.0313,308.8438 Q1608.0313,307.5156 1608.6484,306.3672 Q1609.2656,305.2188 1610.3594,304.6016 Q1611.4531,303.9844 1612.6875,303.9844 Q1613.4219,303.9844 1614.0703,304.1484 Q1614.7188,304.3125 1615.2656,304.6719 Z "/><text fill="#000000" font-family="sans-serif" font-size="12" lengthAdjust="spacingAndGlyphs" textLength="117" x="1626.5" y="313.707">GraphicalMusicSheet</text><line style="stroke: #A80036; stroke-width: 1.5;" x1="1598.5" x2="1745.5" y1="324.7969" y2="324.7969"/><line style="stroke: #A80036; stroke-width: 1.5;" x1="1598.5" x2="1745.5" y1="332.7969" y2="332.7969"/><!--class Graphical.GraphicalObject--><rect fill="#FEFECE" filter="url(#f5khk4xsu3qmm)" height="48" id="Graphical.GraphicalObject" style="stroke: #A80036; stroke-width: 1.5;" width="120" x="1139" y="122.2969"/><ellipse cx="1154" cy="138.2969" fill="#ADD1B2" rx="11" ry="11" style="stroke: #A80036; stroke-width: 1.0;"/><path d="M1156.7656,134.1719 Q1156.9219,133.9531 1157.1094,133.8438 Q1157.2969,133.7344 1157.5156,133.7344 Q1157.8906,133.7344 1158.125,133.9922 Q1158.3594,134.25 1158.3594,134.8594 L1158.3594,136.3125 Q1158.3594,136.9219 1158.125,137.1875 Q1157.8906,137.4531 1157.5156,137.4531 Q1157.1719,137.4531 1156.9688,137.25 Q1156.7656,137.0625 1156.6563,136.5469 Q1156.6094,136.1875 1156.4219,136 Q1156.0938,135.625 1155.4844,135.4063 Q1154.875,135.1875 1154.25,135.1875 Q1153.4844,135.1875 1152.8516,135.5156 Q1152.2188,135.8438 1151.7266,136.5938 Q1151.2344,137.3438 1151.2344,138.375 L1151.2344,139.4688 Q1151.2344,140.7031 1152.125,141.5234 Q1153.0156,142.3438 1154.6094,142.3438 Q1155.5469,142.3438 1156.2031,142.0938 Q1156.5938,141.9375 1157.0156,141.5 Q1157.2813,141.2344 1157.4297,141.1563 Q1157.5781,141.0781 1157.7813,141.0781 Q1158.1094,141.0781 1158.3672,141.3359 Q1158.625,141.5938 1158.625,141.9375 Q1158.625,142.2813 1158.2813,142.6875 Q1157.7813,143.2656 1156.9844,143.5938 Q1155.9063,144.0469 1154.6094,144.0469 Q1153.0938,144.0469 1151.8906,143.4219 Q1150.9063,142.9219 1150.2188,141.8516 Q1149.5313,140.7813 1149.5313,139.5 L1149.5313,138.3438 Q1149.5313,137.0156 1150.1484,135.8672 Q1150.7656,134.7188 1151.8594,134.1016 Q1152.9531,133.4844 1154.1875,133.4844 Q1154.9219,133.4844 1155.5703,133.6484 Q1156.2188,133.8125 1156.7656,134.1719 Z "/><text fill="#000000" font-family="sans-serif" font-size="12" lengthAdjust="spacingAndGlyphs" textLength="88" x="1168" y="143.207">GraphicalObject</text><line style="stroke: #A80036; stroke-width: 1.5;" x1="1140" x2="1258" y1="154.2969" y2="154.2969"/><line style="stroke: #A80036; stroke-width: 1.5;" x1="1140" x2="1258" y1="162.2969" y2="162.2969"/><!--class Graphical.GraphicalNote--><rect fill="#FEFECE" filter="url(#f5khk4xsu3qmm)" height="48" id="Graphical.GraphicalNote" style="stroke: #A80036; stroke-width: 1.5;" width="111" x="856.5" y="449.2969"/><ellipse cx="871.5" cy="465.2969" fill="#ADD1B2" rx="11" ry="11" style="stroke: #A80036; stroke-width: 1.0;"/><path d="M874.2656,461.1719 Q874.4219,460.9531 874.6094,460.8438 Q874.7969,460.7344 875.0156,460.7344 Q875.3906,460.7344 875.625,460.9922 Q875.8594,461.25 875.8594,461.8594 L875.8594,463.3125 Q875.8594,463.9219 875.625,464.1875 Q875.3906,464.4531 875.0156,464.4531 Q874.6719,464.4531 874.4688,464.25 Q874.2656,464.0625 874.1563,463.5469 Q874.1094,463.1875 873.9219,463 Q873.5938,462.625 872.9844,462.4063 Q872.375,462.1875 871.75,462.1875 Q870.9844,462.1875 870.3516,462.5156 Q869.7188,462.8438 869.2266,463.5938 Q868.7344,464.3438 868.7344,465.375 L868.7344,466.4688 Q868.7344,467.7031 869.625,468.5234 Q870.5156,469.3438 872.1094,469.3438 Q873.0469,469.3438 873.7031,469.0938 Q874.0938,468.9375 874.5156,468.5 Q874.7813,468.2344 874.9297,468.1563 Q875.0781,468.0781 875.2813,468.0781 Q875.6094,468.0781 875.8672,468.3359 Q876.125,468.5938 876.125,468.9375 Q876.125,469.2813 875.7813,469.6875 Q875.2813,470.2656 874.4844,470.5938 Q873.4063,471.0469 872.1094,471.0469 Q870.5938,471.0469 869.3906,470.4219 Q868.4063,469.9219 867.7188,468.8516 Q867.0313,467.7813 867.0313,466.5 L867.0313,465.3438 Q867.0313,464.0156 867.6484,462.8672 Q868.2656,461.7188 869.3594,461.1016 Q870.4531,460.4844 871.6875,460.4844 Q872.4219,460.4844 873.0703,460.6484 Q873.7188,460.8125 874.2656,461.1719 Z "/><text fill="#000000" font-family="sans-serif" font-size="12" lengthAdjust="spacingAndGlyphs" textLength="79" x="885.5" y="470.207">GraphicalNote</text><line style="stroke: #A80036; stroke-width: 1.5;" x1="857.5" x2="966.5" y1="481.2969" y2="481.2969"/><line style="stroke: #A80036; stroke-width: 1.5;" x1="857.5" x2="966.5" y1="489.2969" y2="489.2969"/><!--class Graphical.GraphicalMusicPage--><rect fill="#FEFECE" filter="url(#f5khk4xsu3qmm)" height="48" id="Graphical.GraphicalMusicPage" style="stroke: #A80036; stroke-width: 1.5;" width="146" x="1267" y="449.2969"/><ellipse cx="1282" cy="465.2969" fill="#ADD1B2" rx="11" ry="11" style="stroke: #A80036; stroke-width: 1.0;"/><path d="M1284.7656,461.1719 Q1284.9219,460.9531 1285.1094,460.8438 Q1285.2969,460.7344 1285.5156,460.7344 Q1285.8906,460.7344 1286.125,460.9922 Q1286.3594,461.25 1286.3594,461.8594 L1286.3594,463.3125 Q1286.3594,463.9219 1286.125,464.1875 Q1285.8906,464.4531 1285.5156,464.4531 Q1285.1719,464.4531 1284.9688,464.25 Q1284.7656,464.0625 1284.6563,463.5469 Q1284.6094,463.1875 1284.4219,463 Q1284.0938,462.625 1283.4844,462.4063 Q1282.875,462.1875 1282.25,462.1875 Q1281.4844,462.1875 1280.8516,462.5156 Q1280.2188,462.8438 1279.7266,463.5938 Q1279.2344,464.3438 1279.2344,465.375 L1279.2344,466.4688 Q1279.2344,467.7031 1280.125,468.5234 Q1281.0156,469.3438 1282.6094,469.3438 Q1283.5469,469.3438 1284.2031,469.0938 Q1284.5938,468.9375 1285.0156,468.5 Q1285.2813,468.2344 1285.4297,468.1563 Q1285.5781,468.0781 1285.7813,468.0781 Q1286.1094,468.0781 1286.3672,468.3359 Q1286.625,468.5938 1286.625,468.9375 Q1286.625,469.2813 1286.2813,469.6875 Q1285.7813,470.2656 1284.9844,470.5938 Q1283.9063,471.0469 1282.6094,471.0469 Q1281.0938,471.0469 1279.8906,470.4219 Q1278.9063,469.9219 1278.2188,468.8516 Q1277.5313,467.7813 1277.5313,466.5 L1277.5313,465.3438 Q1277.5313,464.0156 1278.1484,462.8672 Q1278.7656,461.7188 1279.8594,461.1016 Q1280.9531,460.4844 1282.1875,460.4844 Q1282.9219,460.4844 1283.5703,460.6484 Q1284.2188,460.8125 1284.7656,461.1719 Z "/><text fill="#000000" font-family="sans-serif" font-size="12" lengthAdjust="spacingAndGlyphs" textLength="114" x="1296" y="470.207">GraphicalMusicPage</text><line style="stroke: #A80036; stroke-width: 1.5;" x1="1268" x2="1412" y1="481.2969" y2="481.2969"/><line style="stroke: #A80036; stroke-width: 1.5;" x1="1268" x2="1412" y1="489.2969" y2="489.2969"/><!--class Vex.Flow.Stave--><rect fill="#FEFECE" filter="url(#f5khk4xsu3qmm)" height="48" id="Vex.Flow.Stave" style="stroke: #A80036; stroke-width: 1.5;" width="62" x="135" y="858.7969"/><ellipse cx="150" cy="874.7969" fill="#ADD1B2" rx="11" ry="11" style="stroke: #A80036; stroke-width: 1.0;"/><path d="M152.7656,870.6719 Q152.9219,870.4531 153.1094,870.3438 Q153.2969,870.2344 153.5156,870.2344 Q153.8906,870.2344 154.125,870.4922 Q154.3594,870.75 154.3594,871.3594 L154.3594,872.8125 Q154.3594,873.4219 154.125,873.6875 Q153.8906,873.9531 153.5156,873.9531 Q153.1719,873.9531 152.9688,873.75 Q152.7656,873.5625 152.6563,873.0469 Q152.6094,872.6875 152.4219,872.5 Q152.0938,872.125 151.4844,871.9063 Q150.875,871.6875 150.25,871.6875 Q149.4844,871.6875 148.8516,872.0156 Q148.2188,872.3438 147.7266,873.0938 Q147.2344,873.8438 147.2344,874.875 L147.2344,875.9688 Q147.2344,877.2031 148.125,878.0234 Q149.0156,878.8438 150.6094,878.8438 Q151.5469,878.8438 152.2031,878.5938 Q152.5938,878.4375 153.0156,878 Q153.2813,877.7344 153.4297,877.6563 Q153.5781,877.5781 153.7813,877.5781 Q154.1094,877.5781 154.3672,877.8359 Q154.625,878.0938 154.625,878.4375 Q154.625,878.7813 154.2813,879.1875 Q153.7813,879.7656 152.9844,880.0938 Q151.9063,880.5469 150.6094,880.5469 Q149.0938,880.5469 147.8906,879.9219 Q146.9063,879.4219 146.2188,878.3516 Q145.5313,877.2813 145.5313,876 L145.5313,874.8438 Q145.5313,873.5156 146.1484,872.3672 Q146.7656,871.2188 147.8594,870.6016 Q148.9531,869.9844 150.1875,869.9844 Q150.9219,869.9844 151.5703,870.1484 Q152.2188,870.3125 152.7656,870.6719 Z "/><text fill="#000000" font-family="sans-serif" font-size="12" lengthAdjust="spacingAndGlyphs" textLength="30" x="164" y="879.707">Stave</text><line style="stroke: #A80036; stroke-width: 1.5;" x1="136" x2="196" y1="890.7969" y2="890.7969"/><line style="stroke: #A80036; stroke-width: 1.5;" x1="136" x2="196" y1="898.7969" y2="898.7969"/><!--class Vex.Flow.Voice--><rect fill="#FEFECE" filter="url(#f5khk4xsu3qmm)" height="48" id="Vex.Flow.Voice" style="stroke: #A80036; stroke-width: 1.5;" width="62" x="38" y="858.7969"/><ellipse cx="53" cy="874.7969" fill="#ADD1B2" rx="11" ry="11" style="stroke: #A80036; stroke-width: 1.0;"/><path d="M55.7656,870.6719 Q55.9219,870.4531 56.1094,870.3438 Q56.2969,870.2344 56.5156,870.2344 Q56.8906,870.2344 57.125,870.4922 Q57.3594,870.75 57.3594,871.3594 L57.3594,872.8125 Q57.3594,873.4219 57.125,873.6875 Q56.8906,873.9531 56.5156,873.9531 Q56.1719,873.9531 55.9688,873.75 Q55.7656,873.5625 55.6563,873.0469 Q55.6094,872.6875 55.4219,872.5 Q55.0938,872.125 54.4844,871.9063 Q53.875,871.6875 53.25,871.6875 Q52.4844,871.6875 51.8516,872.0156 Q51.2188,872.3438 50.7266,873.0938 Q50.2344,873.8438 50.2344,874.875 L50.2344,875.9688 Q50.2344,877.2031 51.125,878.0234 Q52.0156,878.8438 53.6094,878.8438 Q54.5469,878.8438 55.2031,878.5938 Q55.5938,878.4375 56.0156,878 Q56.2813,877.7344 56.4297,877.6563 Q56.5781,877.5781 56.7813,877.5781 Q57.1094,877.5781 57.3672,877.8359 Q57.625,878.0938 57.625,878.4375 Q57.625,878.7813 57.2813,879.1875 Q56.7813,879.7656 55.9844,880.0938 Q54.9063,880.5469 53.6094,880.5469 Q52.0938,880.5469 50.8906,879.9219 Q49.9063,879.4219 49.2188,878.3516 Q48.5313,877.2813 48.5313,876 L48.5313,874.8438 Q48.5313,873.5156 49.1484,872.3672 Q49.7656,871.2188 50.8594,870.6016 Q51.9531,869.9844 53.1875,869.9844 Q53.9219,869.9844 54.5703,870.1484 Q55.2188,870.3125 55.7656,870.6719 Z "/><text fill="#000000" font-family="sans-serif" font-size="12" lengthAdjust="spacingAndGlyphs" textLength="30" x="67" y="879.707">Voice</text><line style="stroke: #A80036; stroke-width: 1.5;" x1="39" x2="99" y1="890.7969" y2="890.7969"/><line style="stroke: #A80036; stroke-width: 1.5;" x1="39" x2="99" y1="898.7969" y2="898.7969"/><!--class StaveNote--><rect fill="#FEFECE" filter="url(#f5khk4xsu3qmm)" height="48" id="StaveNote" style="stroke: #A80036; stroke-width: 1.5;" width="88" x="232" y="858.7969"/><ellipse cx="247" cy="874.7969" fill="#ADD1B2" rx="11" ry="11" style="stroke: #A80036; stroke-width: 1.0;"/><path d="M249.7656,870.6719 Q249.9219,870.4531 250.1094,870.3438 Q250.2969,870.2344 250.5156,870.2344 Q250.8906,870.2344 251.125,870.4922 Q251.3594,870.75 251.3594,871.3594 L251.3594,872.8125 Q251.3594,873.4219 251.125,873.6875 Q250.8906,873.9531 250.5156,873.9531 Q250.1719,873.9531 249.9688,873.75 Q249.7656,873.5625 249.6563,873.0469 Q249.6094,872.6875 249.4219,872.5 Q249.0938,872.125 248.4844,871.9063 Q247.875,871.6875 247.25,871.6875 Q246.4844,871.6875 245.8516,872.0156 Q245.2188,872.3438 244.7266,873.0938 Q244.2344,873.8438 244.2344,874.875 L244.2344,875.9688 Q244.2344,877.2031 245.125,878.0234 Q246.0156,878.8438 247.6094,878.8438 Q248.5469,878.8438 249.2031,878.5938 Q249.5938,878.4375 250.0156,878 Q250.2813,877.7344 250.4297,877.6563 Q250.5781,877.5781 250.7813,877.5781 Q251.1094,877.5781 251.3672,877.8359 Q251.625,878.0938 251.625,878.4375 Q251.625,878.7813 251.2813,879.1875 Q250.7813,879.7656 249.9844,880.0938 Q248.9063,880.5469 247.6094,880.5469 Q246.0938,880.5469 244.8906,879.9219 Q243.9063,879.4219 243.2188,878.3516 Q242.5313,877.2813 242.5313,876 L242.5313,874.8438 Q242.5313,873.5156 243.1484,872.3672 Q243.7656,871.2188 244.8594,870.6016 Q245.9531,869.9844 247.1875,869.9844 Q247.9219,869.9844 248.5703,870.1484 Q249.2188,870.3125 249.7656,870.6719 Z "/><text fill="#000000" font-family="sans-serif" font-size="12" lengthAdjust="spacingAndGlyphs" textLength="56" x="261" y="879.707">StaveNote</text><line style="stroke: #A80036; stroke-width: 1.5;" x1="233" x2="319" y1="890.7969" y2="890.7969"/><line style="stroke: #A80036; stroke-width: 1.5;" x1="233" x2="319" y1="898.7969" y2="898.7969"/><!--class OSMD--><rect fill="#FEFECE" filter="url(#f5khk4xsu3qmm)" height="131.0156" id="OSMD" style="stroke: #A80036; stroke-width: 1.5;" width="205" x="1810.5" y="80.7969"/><ellipse cx="1891.25" cy="96.7969" fill="#ADD1B2" rx="11" ry="11" style="stroke: #A80036; stroke-width: 1.0;"/><path d="M1894.0156,92.6719 Q1894.1719,92.4531 1894.3594,92.3438 Q1894.5469,92.2344 1894.7656,92.2344 Q1895.1406,92.2344 1895.375,92.4922 Q1895.6094,92.75 1895.6094,93.3594 L1895.6094,94.8125 Q1895.6094,95.4219 1895.375,95.6875 Q1895.1406,95.9531 1894.7656,95.9531 Q1894.4219,95.9531 1894.2188,95.75 Q1894.0156,95.5625 1893.9063,95.0469 Q1893.8594,94.6875 1893.6719,94.5 Q1893.3438,94.125 1892.7344,93.9063 Q1892.125,93.6875 1891.5,93.6875 Q1890.7344,93.6875 1890.1016,94.0156 Q1889.4688,94.3438 1888.9766,95.0938 Q1888.4844,95.8438 1888.4844,96.875 L1888.4844,97.9688 Q1888.4844,99.2031 1889.375,100.0234 Q1890.2656,100.8438 1891.8594,100.8438 Q1892.7969,100.8438 1893.4531,100.5938 Q1893.8438,100.4375 1894.2656,100 Q1894.5313,99.7344 1894.6797,99.6563 Q1894.8281,99.5781 1895.0313,99.5781 Q1895.3594,99.5781 1895.6172,99.8359 Q1895.875,100.0938 1895.875,100.4375 Q1895.875,100.7813 1895.5313,101.1875 Q1895.0313,101.7656 1894.2344,102.0938 Q1893.1563,102.5469 1891.8594,102.5469 Q1890.3438,102.5469 1889.1406,101.9219 Q1888.1563,101.4219 1887.4688,100.3516 Q1886.7813,99.2813 1886.7813,98 L1886.7813,96.8438 Q1886.7813,95.5156 1887.3984,94.3672 Q1888.0156,93.2188 1889.1094,92.6016 Q1890.2031,91.9844 1891.4375,91.9844 Q1892.1719,91.9844 1892.8203,92.1484 Q1893.4688,92.3125 1894.0156,92.6719 Z "/><text fill="#000000" font-family="sans-serif" font-size="12" lengthAdjust="spacingAndGlyphs" textLength="35" x="1911.75" y="101.707">OSMD</text><line style="stroke: #A80036; stroke-width: 1.5;" x1="1811.5" x2="2014.5" y1="112.7969" y2="112.7969"/><ellipse cx="1821.5" cy="125.2148" fill="none" rx="3" ry="3" style="stroke: #038048; stroke-width: 1.0;"/><text fill="#000000" font-family="sans-serif" font-size="11" lengthAdjust="spacingAndGlyphs" textLength="133" x="1830.5" y="128.2158">backend: VexFlowBackend</text><rect fill="none" height="6" style="stroke: #C82930; stroke-width: 1.0;" width="6" x="1818.5" y="136.0508"/><text fill="#000000" font-family="sans-serif" font-size="11" lengthAdjust="spacingAndGlyphs" textLength="89" x="1830.5" y="142.0518">sheet: MusicSheet</text><rect fill="none" height="6" style="stroke: #C82930; stroke-width: 1.0;" width="6" x="1818.5" y="149.8867"/><text fill="#000000" font-family="sans-serif" font-size="11" lengthAdjust="spacingAndGlyphs" textLength="179" x="1830.5" y="155.8877">drawer: VexFlowMusicSheetDrawer</text><rect fill="none" height="6" style="stroke: #C82930; stroke-width: 1.0;" width="6" x="1818.5" y="163.7227"/><text fill="#000000" font-family="sans-serif" font-size="11" lengthAdjust="spacingAndGlyphs" textLength="144" x="1830.5" y="169.7236">graphic: GraphicalMusicSheet</text><line style="stroke: #A80036; stroke-width: 1.5;" x1="1811.5" x2="2014.5" y1="176.1406" y2="176.1406"/><ellipse cx="1821.5" cy="188.5586" fill="#84BE84" rx="3" ry="3" style="stroke: #038048; stroke-width: 1.0;"/><text fill="#000000" font-family="sans-serif" font-size="11" lengthAdjust="spacingAndGlyphs" textLength="134" x="1830.5" y="191.5596">load(input: string|Document)</text><ellipse cx="1821.5" cy="202.3945" fill="#84BE84" rx="3" ry="3" style="stroke: #038048; stroke-width: 1.0;"/><text fill="#000000" font-family="sans-serif" font-size="11" lengthAdjust="spacingAndGlyphs" textLength="40" x="1830.5" y="205.3955">render()</text><!--link OSMD to Graphical.VexFlow.VexFlowBackend--><path d="M1934.38,224.7329 C1950.55,290.1639 1970,386.6379 1970,472.2969 C1970,472.2969 1970,472.2969 1970,609.7969 C1970,872.4959 964.93,884.0979 698.94,882.5689 " fill="none" id="OSMD-Graphical.VexFlow.VexFlowBackend" style="stroke: #A80036; stroke-width: 1.0;"/><polygon fill="#A80036" points="1931.19,212.0739,1928.7737,218.8681,1934.1159,223.7117,1936.5322,216.9175,1931.19,212.0739" style="stroke: #A80036; stroke-width: 1.0;"/><!--link OSMD to Graphical.GraphicalMusicSheet--><path d="M1809.47,219.6819 C1771.91,245.9419 1732.11,273.7709 1705.05,292.6879 " fill="none" id="OSMD-Graphical.GraphicalMusicSheet" style="stroke: #A80036; stroke-width: 1.0;"/><polygon fill="#A80036" points="1820.51,211.9619,1813.3008,212.1253,1810.6788,218.8429,1817.8881,218.6794,1820.51,211.9619" style="stroke: #A80036; stroke-width: 1.0;"/><!--link OSMD to Graphical.MusicSheet--><path d="M1903.06,224.8429 C1894.87,267.7509 1880.16,320.5699 1854,361.7969 C1834.72,392.1739 1804.52,418.6929 1778.19,438.1329 " fill="none" id="OSMD-Graphical.MusicSheet" style="stroke: #A80036; stroke-width: 1.0;"/><polygon fill="#A80036" points="1905.4,211.8689,1900.3992,217.0643,1903.2716,223.6786,1908.2724,218.4832,1905.4,211.8689" style="stroke: #A80036; stroke-width: 1.0;"/><!--link OSMD to Graphical.VexFlow.VexFlowMusicSheetDrawer--><path d="M1872.91,223.5869 C1841.08,283.4909 1800.81,357.5139 1794,361.7969 C1600.28,483.6009 952.292,288.9069 766,421.7969 C740.617,439.9039 671.412,633.1569 642.723,715.7299 " fill="none" id="OSMD-Graphical.VexFlow.VexFlowMusicSheetDrawer" style="stroke: #A80036; stroke-width: 1.0;"/><polygon fill="#A80036" points="1879.15,211.8189,1872.805,215.2454,1873.5276,222.4202,1879.8726,218.9937,1879.15,211.8189" style="stroke: #A80036; stroke-width: 1.0;"/><!--link Graphical.GraphicalObject to Graphical.StaffMeasure--><path d="M1158.72,183.7129 C1146.99,193.4419 1133.86,203.5369 1121,211.7969 C1069.48,244.8769 1035.99,224.5929 997,271.7969 C970.637,303.7149 999.834,330.2729 973,361.7969 C930.704,411.4859 874.482,367.0339 839,421.7969 C814.108,460.2159 814.98,485.8269 839,524.7969 C863.565,564.6509 913.777,586.0429 952.394,597.0679 " fill="none" id="Graphical.GraphicalObject-Graphical.StaffMeasure" style="stroke: #A80036; stroke-width: 1.0;"/><polygon fill="none" points="1154.46,178.1459,1174.19,170.4329,1163.58,188.7699,1154.46,178.1459" style="stroke: #A80036; stroke-width: 1.0;"/><!--link Graphical.GraphicalObject to Graphical.GraphicalNote--><path d="M1155.59,183.3149 C1144.35,192.6149 1132.24,202.5969 1121,211.7969 C1088.24,238.6219 1073.66,238.8999 1047,271.7969 C1018.72,306.6989 1025.44,324.1059 1001,361.7969 C980.227,393.8319 951.982,427.5829 932.929,449.2289 " fill="none" id="Graphical.GraphicalObject-Graphical.GraphicalNote" style="stroke: #A80036; stroke-width: 1.0;"/><polygon fill="none" points="1151.39,177.7099,1171.26,170.3479,1160.32,188.4939,1151.39,177.7099" style="stroke: #A80036; stroke-width: 1.0;"/><!--link Graphical.GraphicalObject to Graphical.GraphicalStaffEntry--><path d="M1159.31,183.9879 C1147.51,193.7939 1134.21,203.8599 1121,211.7969 C1105.86,220.8939 1022.72,254.7329 956.016,281.3729 " fill="none" id="Graphical.GraphicalObject-Graphical.GraphicalStaffEntry" style="stroke: #A80036; stroke-width: 1.0;"/><polygon fill="none" points="1155.11,178.3659,1174.8,170.5479,1164.28,188.9409,1155.11,178.3659" style="stroke: #A80036; stroke-width: 1.0;"/><!--link Graphical.GraphicalObject to Graphical.MusicSystem--><path d="M1190.58,190.2899 C1185.71,215.1809 1179.58,246.4519 1174.66,271.5529 " fill="none" id="Graphical.GraphicalObject-Graphical.MusicSystem" style="stroke: #A80036; stroke-width: 1.0;"/><polygon fill="none" points="1183.77,188.6549,1194.48,170.3729,1197.51,191.3449,1183.77,188.6549" style="stroke: #A80036; stroke-width: 1.0;"/><!--link Graphical.GraphicalObject to Graphical.StaffLine--><path d="M1233.97,185.8849 C1269.03,229.5169 1313.86,302.2349 1284,361.7969 C1268.48,392.7549 1239.71,417.2589 1211.64,435.2449 " fill="none" id="Graphical.GraphicalObject-Graphical.StaffLine" style="stroke: #A80036; stroke-width: 1.0;"/><polygon fill="none" points="1228.47,190.2209,1220.95,170.4099,1239.18,181.2089,1228.47,190.2209" style="stroke: #A80036; stroke-width: 1.0;"/><!--link Graphical.GraphicalObject to Graphical.GraphicalMusicPage--><path d="M1237.04,185.3489 C1258.08,208.4959 1282.93,239.7099 1298,271.7969 C1326.2,331.8309 1335.6,410.8059 1338.63,449.2619 " fill="none" id="Graphical.GraphicalObject-Graphical.GraphicalMusicPage" style="stroke: #A80036; stroke-width: 1.0;"/><polygon fill="none" points="1231.87,190.0629,1223.26,170.7009,1242.06,180.4689,1231.87,190.0629" style="stroke: #A80036; stroke-width: 1.0;"/><!--link Graphical.GraphicalObject to Graphical.BoundingBox--><path d="M1245.91,177.5809 C1293.25,208.1469 1365.95,255.0769 1413.24,285.6089 " fill="none" id="Graphical.GraphicalObject-Graphical.BoundingBox" style="stroke: #A80036; stroke-width: 1.0;"/><polygon fill="#A80036" points="1234.74,170.3729,1237.615,176.9861,1244.8253,176.8757,1241.9503,170.2625,1234.74,170.3729" style="stroke: #A80036; stroke-width: 1.0;"/><!--link Graphical.BoundingBox to Graphical.BoundingBox--><path d="M1557.3,290.9089 C1570.34,295.2789 1579,303.9079 1579,316.7969 C1579,333.6309 1564.22,343.1989 1544.23,345.4999 " fill="none" id="Graphical.BoundingBox-Graphical.BoundingBox" style="stroke: #A80036; stroke-width: 1.0;"/><polygon fill="#A80036" points="1544.23,288.0939,1549.2566,293.2643,1555.9626,290.6129,1550.936,285.4425,1544.23,288.0939" style="stroke: #A80036; stroke-width: 1.0;"/><!--link Graphical.GraphicalMusicSheet to Graphical.MusicSheetCalculator--><path d="M1647.72,351.5929 C1626.46,381.1899 1596.13,423.3999 1577.55,449.2609 " fill="none" id="Graphical.GraphicalMusicSheet-Graphical.MusicSheetCalculator" style="stroke: #A80036; stroke-width: 1.0;"/><polygon fill="#A80036" points="1655.38,340.9269,1648.6305,343.4654,1648.3777,350.672,1655.1273,348.1335,1655.38,340.9269" style="stroke: #A80036; stroke-width: 1.0;"/><!--link Graphical.GraphicalMusicSheet to Graphical.MusicSheet--><path d="M1684.19,353.3299 C1691.12,373.5359 1699.92,399.1819 1707.57,421.4839 " fill="none" id="Graphical.GraphicalMusicSheet-Graphical.MusicSheet" style="stroke: #A80036; stroke-width: 1.0;"/><polygon fill="#A80036" points="1679.93,340.9269,1678.0929,347.9,1683.8231,352.2778,1685.6602,345.3047,1679.93,340.9269" style="stroke: #A80036; stroke-width: 1.0;"/><!--link Graphical.GraphicalMusicSheet to Graphical.GraphicalMusicPage--><path d="M1611.8,346.6469 C1600.92,351.7589 1589.64,356.9839 1579,361.7969 C1517.69,389.5229 1500.95,393.2849 1440,421.7969 C1421.68,430.3679 1401.74,440.3099 1384.52,449.0939 " fill="none" id="Graphical.GraphicalMusicSheet-Graphical.GraphicalMusicPage" style="stroke: #A80036; stroke-width: 1.0;"/><polygon fill="#A80036" points="1623.88,340.9509,1616.7472,339.8914,1613.0258,346.0681,1620.1586,347.1275,1623.88,340.9509" style="stroke: #A80036; stroke-width: 1.0;"/><!--link Graphical.GraphicalMusicSheet to Graphical.StaffMeasure--><path d="M1612.94,346.5929 C1554.63,375.2249 1473.38,415.7409 1468,421.7969 C1435.59,458.2739 1467.17,493.1809 1430,524.7969 C1374.04,572.3989 1156.16,595.6399 1055.5,604.0129 " fill="none" id="Graphical.GraphicalMusicSheet-Graphical.StaffMeasure" style="stroke: #A80036; stroke-width: 1.0;"/><polygon fill="#A80036" points="1624.64,340.8599,1617.4914,339.9127,1613.8676,346.1472,1621.0162,347.0943,1624.64,340.8599" style="stroke: #A80036; stroke-width: 1.0;"/><!--link Graphical.MusicSheetDrawer to Graphical.GraphicalMusicSheet--><path d="M1045.85,188.8509 C1070.18,197.4789 1096.25,205.7679 1121,211.7969 C1320.46,260.3869 1382.05,213.8629 1579,271.7969 C1596.48,276.9379 1614.79,284.9679 1630.5,292.7679 " fill="none" id="Graphical.MusicSheetDrawer-Graphical.GraphicalMusicSheet" style="stroke: #A80036; stroke-width: 1.0;"/><polygon fill="#A80036" points="1033.3,184.3179,1037.5852,190.1176,1044.587,188.3927,1040.3018,182.593,1033.3,184.3179" style="stroke: #A80036; stroke-width: 1.0;"/><!--link Graphical.StaffLine to Graphical.StaffMeasure--><path d="M1089.99,520.8249 C1068.66,542.4019 1044.25,567.0909 1026.9,584.6379 " fill="none" id="Graphical.StaffLine-Graphical.StaffMeasure" style="stroke: #A80036; stroke-width: 1.0;"/><polygon fill="#A80036" points="1099.23,511.4839,1092.168,512.9425,1090.7983,520.0224,1097.8603,518.5637,1099.23,511.4839" style="stroke: #A80036; stroke-width: 1.0;"/><!--link Graphical.GraphicalStaffEntry to Graphical.StaffMeasure--><path d="M834.427,366.0739 C807.328,410.3939 779.089,476.3369 811,524.7969 C842.092,572.0139 906.286,592.4809 952.099,601.2819 " fill="none" id="Graphical.GraphicalStaffEntry-Graphical.StaffMeasure" style="stroke: #A80036; stroke-width: 1.0;"/><polygon fill="#A80036" points="841.438,355.0169,834.8468,357.942,835.0119,365.1512,841.6031,362.2261,841.438,355.0169" style="stroke: #A80036; stroke-width: 1.0;"/><!--link Graphical.GraphicalStaffEntry to Graphical.GraphicalNote--><path d="M882.791,367.3479 C890.414,394.7369 899.527,427.4809 905.523,449.0259 " fill="none" id="Graphical.GraphicalStaffEntry-Graphical.GraphicalNote" style="stroke: #A80036; stroke-width: 1.0;"/><polygon fill="#A80036" points="879.3,354.8039,877.0552,361.6567,882.5175,366.3645,884.7623,359.5117,879.3,354.8039" style="stroke: #A80036; stroke-width: 1.0;"/><!--link Graphical.MusicSystem to Graphical.GraphicalMusicPage--><path d="M1225.82,370.9149 C1255.8,397.5369 1290.57,428.4099 1313.79,449.0269 " fill="none" id="Graphical.MusicSystem-Graphical.GraphicalMusicPage" style="stroke: #A80036; stroke-width: 1.0;"/><polygon fill="#A80036" points="1215.86,362.0699,1217.6916,369.0445,1224.8341,370.0363,1223.0026,363.0617,1215.86,362.0699" style="stroke: #A80036; stroke-width: 1.0;"/><!--link Graphical.MusicSystem to Graphical.StaffLine--><path d="M1154.91,374.9259 C1151.89,390.4609 1148.65,407.1629 1145.71,422.2719 " fill="none" id="Graphical.MusicSystem-Graphical.StaffLine" style="stroke: #A80036; stroke-width: 1.0;"/><polygon fill="#A80036" points="1143.23,435.0699,1148.3009,429.9429,1145.5187,423.2901,1140.4478,428.4171,1143.23,435.0699" style="stroke: #A80036; stroke-width: 1.0;"/><polygon fill="#A80036" points="1157.4,362.0699,1152.3296,367.1974,1155.1126,373.8498,1160.183,368.7223,1157.4,362.0699" style="stroke: #A80036; stroke-width: 1.0;"/><!--link Graphical.MusicSystem to Graphical.StaffMeasure--><path d="M1070.84,369.5409 C1052.12,384.0259 1034.69,401.4769 1023,421.7969 C993.144,473.7119 996.454,547.4069 1000.632,584.5229 " fill="none" id="Graphical.MusicSystem-Graphical.StaffMeasure" style="stroke: #A80036; stroke-width: 1.0;"/><polygon fill="#A80036" points="1081.34,361.7989,1074.1369,362.1395,1071.681,368.9195,1078.884,368.5789,1081.34,361.7989" style="stroke: #A80036; stroke-width: 1.0;"/><!--link Graphical.StaffMeasure to Graphical.VexFlow.VexFlowMeasure--><path d="M1004,653.1859 C1004,670.7739 1004,691.0629 1004,708.7209 " fill="none" id="Graphical.StaffMeasure-Graphical.VexFlow.VexFlowMeasure" style="stroke: #A80036; stroke-width: 1.0;"/><polygon fill="none" points="997,653.0909,1004,633.0909,1011,653.0909,997,653.0909" style="stroke: #A80036; stroke-width: 1.0;"/><!--link Graphical.GraphicalNote to Graphical.VexFlow.VexFlowGraphicalNote--><path d="M972.744,507.8819 C1004.918,527.5659 1043.72,554.4929 1073,584.7969 C1116.49,629.8089 1151.97,695.1529 1169.03,729.5779 " fill="none" id="Graphical.GraphicalNote-Graphical.VexFlow.VexFlowGraphicalNote" style="stroke: #A80036; stroke-width: 1.0;"/><polygon fill="none" points="968.787,513.6729,955.172,497.4369,975.94,501.6389,968.787,513.6729" style="stroke: #A80036; stroke-width: 1.0;"/><!--link Graphical.MusicSheetDrawer to Graphical.VexFlow.VexFlowMusicSheetDrawer--><path d="M851.735,195.1269 C820.388,215.2729 787.351,241.2029 764,271.7969 C658.021,410.6469 635.857,628.9159 631.224,715.5579 " fill="none" id="Graphical.MusicSheetDrawer-Graphical.VexFlow.VexFlowMusicSheetDrawer" style="stroke: #A80036; stroke-width: 1.0;"/><polygon fill="none" points="848.206,189.0789,868.903,184.5369,855.556,200.9949,848.206,189.0789" style="stroke: #A80036; stroke-width: 1.0;"/><!--link Graphical.MusicSheetCalculator to Graphical.VexFlow.VexFlowMusicSheetCalculator--><path d="M1559.6,517.6899 C1557.66,577.5469 1554.25,683.3119 1552.74,729.7929 " fill="none" id="Graphical.MusicSheetCalculator-Graphical.VexFlow.VexFlowMusicSheetCalculator" style="stroke: #A80036; stroke-width: 1.0;"/><polygon fill="none" points="1552.61,517.3259,1560.25,497.5629,1566.6,517.7779,1552.61,517.3259" style="stroke: #A80036; stroke-width: 1.0;"/><!--link Graphical.StaffLine to Graphical.VexFlow.VexFlowStaffLine--><path d="M1177.9,527.3339 C1226,588.2279 1302.75,685.3869 1337.65,729.5689 " fill="none" id="Graphical.StaffLine-Graphical.VexFlow.VexFlowStaffLine" style="stroke: #A80036; stroke-width: 1.0;"/><polygon fill="none" points="1172.35,531.6009,1165.44,511.5679,1183.33,522.9229,1172.35,531.6009" style="stroke: #A80036; stroke-width: 1.0;"/><!--link Graphical.GraphicalStaffEntry to Graphical.VexFlow.VexFlowStaffEntry--><path d="M816.516,369.1399 C748.052,436.3739 624.87,558.2319 522,664.7969 C501.115,686.4319 477.78,711.5709 461.36,729.4269 " fill="none" id="Graphical.GraphicalStaffEntry-Graphical.VexFlow.VexFlowStaffEntry" style="stroke: #A80036; stroke-width: 1.0;"/><polygon fill="none" points="811.9,363.8619,831.079,354.8519,821.704,373.8559,811.9,363.8619" style="stroke: #A80036; stroke-width: 1.0;"/><!--link Graphical.MusicSystem to Graphical.VexFlow.VexFlowMusicSystem--><path d="M1045.17,348.9449 C957.515,372.7379 852.106,404.3239 839,421.7969 C768.468,515.8369 805.517,670.8529 823.278,729.4169 " fill="none" id="Graphical.MusicSystem-Graphical.VexFlow.VexFlowMusicSystem" style="stroke: #A80036; stroke-width: 1.0;"/><polygon fill="none" points="1043.57,342.1249,1064.7,343.6889,1047.21,355.6449,1043.57,342.1249" style="stroke: #A80036; stroke-width: 1.0;"/><!--link Graphical.VexFlow.VexFlowMusicSheetDrawer to Graphical.VexFlow.VexFlowBackend--><path d="M631.975,804.9539 C632.702,823.4329 633.492,843.4909 634.082,858.4789 " fill="none" id="Graphical.VexFlow.VexFlowMusicSheetDrawer-Graphical.VexFlow.VexFlowBackend" style="stroke: #A80036; stroke-width: 1.0;"/><polygon fill="#A80036" points="631.46,791.8719,627.6991,798.0246,631.9321,803.8626,635.6929,797.7099,631.46,791.8719" style="stroke: #A80036; stroke-width: 1.0;"/><!--link Graphical.VexFlow.VexFlowBackend to Graphical.VexFlow.SvgVexFlowBackend--><path d="M601.461,922.0239 C588.415,936.8939 573.89,953.4492 562.461,966.4753 " fill="none" id="Graphical.VexFlow.VexFlowBackend-Graphical.VexFlow.SvgVexFlowBackend" style="stroke: #A80036; stroke-width: 1.0;"/><polygon fill="none" points="596.368,917.2149,614.82,906.7969,606.892,926.4479,596.368,917.2149" style="stroke: #A80036; stroke-width: 1.0;"/><!--link Graphical.VexFlow.VexFlowBackend to Graphical.VexFlow.CanvasVexFlowBackend--><path d="M669.904,921.5499 C683.763,936.5409 699.267,953.3107 711.439,966.4753 " fill="none" id="Graphical.VexFlow.VexFlowBackend-Graphical.VexFlow.CanvasVexFlowBackend" style="stroke: #A80036; stroke-width: 1.0;"/><polygon fill="none" points="664.702,926.2349,656.265,906.7969,674.982,916.7309,664.702,926.2349" style="stroke: #A80036; stroke-width: 1.0;"/><!--link Graphical.VexFlow.VexFlowMeasure to Vex.Flow.Stave--><path d="M928.662,797.1419 C926.774,797.7419 924.885,798.2949 923,798.7969 C884.926,808.9289 248.84,796.3989 214,814.7969 C196.286,824.1509 183.591,843.3119 175.723,858.7559 " fill="none" id="Graphical.VexFlow.VexFlowMeasure-Vex.Flow.Stave" style="stroke: #A80036; stroke-width: 1.0;"/><polygon fill="#A80036" points="941.068,792.5849,934.0567,790.8992,929.804,796.7228,936.8153,798.4085,941.068,792.5849" style="stroke: #A80036; stroke-width: 1.0;"/><!--link Graphical.VexFlow.VexFlowMeasure to Vex.Flow.Voice--><path d="M928.664,797.1489 C926.775,797.7469 924.885,798.2979 923,798.7969 C879.704,810.2559 156.632,793.9369 117,814.7969 C99.273,824.1269 86.5794,843.2899 78.7156,858.7409 " fill="none" id="Graphical.VexFlow.VexFlowMeasure-Vex.Flow.Voice" style="stroke: #A80036; stroke-width: 1.0;"/><polygon fill="#A80036" points="941.073,792.6019,934.0631,790.9103,929.8056,796.7304,936.8155,798.422,941.073,792.6019" style="stroke: #A80036; stroke-width: 1.0;"/><!--link Graphical.VexFlow.VexFlowGraphicalNote to StaveNote--><path d="M1127.12,783.6699 C1113.46,789.8219 1098.5,795.4639 1084,798.7969 C1005.581,816.8219 435.649,787.3809 360,814.7969 C335.447,823.6949 312.627,842.8989 296.987,858.4749 " fill="none" id="Graphical.VexFlow.VexFlowGraphicalNote-StaveNote" style="stroke: #A80036; stroke-width: 1.0;"/><polygon fill="#A80036" points="1139.25,777.9289,1132.1159,776.8778,1128.4018,783.0589,1135.5359,784.1099,1139.25,777.9289" style="stroke: #A80036; stroke-width: 1.0;"/><!--
@startuml OSMD Architecture
title OSMD Architecture

left header
<font color=red>Warning:</font>
Preliminary. Not all classes are documented here. It is just a rough top down overview to help navigating the basic code pieces
endheader


class OSMD {
    + backend: VexFlowBackend
    - sheet: MusicSheet
    - drawer: VexFlowMusicSheetDrawer
    - graphic: GraphicalMusicSheet
    + load(input: string|Document)
    + render()
}
abstract Graphical.VexFlow.VexFlowBackend
abstract Graphical.StaffMeasure
abstract Graphical.MusicSheetCalculator
abstract Graphical.MusicSystem {
    # staffLines: StaffLine[]
    # graphicalMeasures: StaffMeasure[][]
    # parent: GraphicalMusicPage
}

abstract Graphical.StaffLine {
    # measures: StaffMeasure[]
    # parentMusicSystem: MusicSystem
}

class Graphical.MusicSheet {
    - title: Label
    - subtitle: Label
    - composer: Label
    - lyricist: Label
}

class Graphical.VexFlow.VexFlowMusicSheetDrawer {
    - backend: VexFlowBackend
    - zoom: number
}

abstract class Graphical.MusicSheetDrawer {
    # graphicalMusicSheet: GraphicalMusicSheet
    + drawSheet(graphicalMusicSheet: GraphicalMusicSheet): void
}

class Graphical.VexFlow.VexFlowMeasure {
    - vStave: Stave
    + vfVoices: Voice
    + getVFStave(): Stave
}

abstract class Graphical.GraphicalStaffEntry {
    + parentMeasure: StaffMeasure;
    + notes: GraphicalNote[][]
}

class Graphical.BoundingBox {
    + ChildElements[]: BoundingBox
}

class Graphical.VexFlow.VexFlowStaffEntry
class Graphical.VexFlow.VexFlowStaffLine
class Graphical.VexFlow.VexFlowMusicSystem

OSMD *- - Graphical.VexFlow.VexFlowBackend
OSMD *- - Graphical.GraphicalMusicSheet
OSMD *- - Graphical.MusicSheet
OSMD *- - Graphical.VexFlow.VexFlowMusicSheetDrawer

namespace Graphical {
    GraphicalObject <|- - StaffMeasure
    GraphicalObject <|- - GraphicalNote
    GraphicalObject <|- - GraphicalStaffEntry
    GraphicalObject <|- - MusicSystem
    GraphicalObject <|- - StaffLine
    GraphicalObject <|- - GraphicalMusicPage
    GraphicalObject *- - BoundingBox
    BoundingBox *- - BoundingBox
    GraphicalMusicSheet *- - MusicSheetCalculator
    GraphicalMusicSheet *- - MusicSheet
    GraphicalMusicSheet *- - GraphicalMusicPage
    GraphicalMusicSheet *- - StaffMeasure
    MusicSheetDrawer *- - GraphicalMusicSheet
    StaffLine *- - StaffMeasure
    GraphicalStaffEntry *- - StaffMeasure
    GraphicalStaffEntry *- - GraphicalNote
    MusicSystem *- - GraphicalMusicPage
    MusicSystem *- -* StaffLine
    MusicSystem *- - StaffMeasure
}

namespace Graphical {
    StaffMeasure <|- - Graphical.VexFlow.VexFlowMeasure
    GraphicalNote <|- - Graphical.VexFlow.VexFlowGraphicalNote
    MusicSheetDrawer <|- - Graphical.VexFlow.VexFlowMusicSheetDrawer
    MusicSheetCalculator <|- - Graphical.VexFlow.VexFlowMusicSheetCalculator
    StaffLine <|- - Graphical.VexFlow.VexFlowStaffLine
    GraphicalStaffEntry <|- - Graphical.VexFlow.VexFlowStaffEntry
    MusicSystem <|- - Graphical.VexFlow.VexFlowMusicSystem
}

namespace Graphical.VexFlow {
    VexFlowMusicSheetDrawer *- - VexFlowBackend
    VexFlowBackend <|- - SvgVexFlowBackend
    VexFlowBackend <|- - CanvasVexFlowBackend
}

namespace Vex.Flow {
    Graphical.VexFlow.VexFlowMeasure *- - Stave
    Graphical.VexFlow.VexFlowMeasure *- - Voice
    Graphical.VexFlow.VexFlowGraphicalNote *- - .StaveNote
}

@enduml

PlantUML version 1.2017.20(Mon Dec 11 17:57:05 CET 2017)
(GPL source distribution)
Java Runtime: Java(TM) SE Runtime Environment
JVM: Java HotSpot(TM) 64-Bit Server VM
Java Version: 1.8.0_73-b02
Operating System: Windows 10
OS Version: 10.0
Default Encoding: Cp1252
Language: de
Country: DE
--></g></svg>